%TF.GenerationSoftware,KiCad,Pcbnew,8.0.0*%
%TF.CreationDate,2024-05-11T21:47:54-06:00*%
%TF.ProjectId,PLACAROUTEADA,504c4143-4152-44f5-9554-454144412e6b,rev?*%
%TF.SameCoordinates,Original*%
%TF.FileFunction,Drillmap*%
%TF.FilePolarity,Positive*%
%FSLAX45Y45*%
G04 Gerber Fmt 4.5, Leading zero omitted, Abs format (unit mm)*
G04 Created by KiCad (PCBNEW 8.0.0) date 2024-05-11 21:47:54*
%MOMM*%
%LPD*%
G01*
G04 APERTURE LIST*
%ADD10C,0.050000*%
%ADD11C,0.200000*%
%ADD12C,0.100000*%
%ADD13C,0.320000*%
G04 APERTURE END LIST*
D10*
X8000000Y-4002500D02*
X18000000Y-4002500D01*
X18000000Y-14002500D01*
X8000000Y-14002500D01*
X8000000Y-4002500D01*
X8000000Y-4002500D02*
X18000000Y-4002500D01*
X18000000Y-14002500D01*
X8000000Y-14002500D01*
X8000000Y-4002500D01*
D11*
D12*
X8490000Y-11260000D02*
X8570000Y-11340000D01*
X8570000Y-11260000D02*
X8490000Y-11340000D01*
X8490000Y-11760000D02*
X8570000Y-11840000D01*
X8570000Y-11760000D02*
X8490000Y-11840000D01*
D13*
X10800000Y-5501410D02*
G75*
G02*
X10480000Y-5501410I-160000J0D01*
G01*
X10480000Y-5501410D02*
G75*
G02*
X10800000Y-5501410I160000J0D01*
G01*
X11307940Y-10708550D02*
G75*
G02*
X10987940Y-10708550I-160000J0D01*
G01*
X10987940Y-10708550D02*
G75*
G02*
X11307940Y-10708550I160000J0D01*
G01*
X14101990Y-10708630D02*
G75*
G02*
X13781990Y-10708630I-160000J0D01*
G01*
X13781990Y-10708630D02*
G75*
G02*
X14101990Y-10708630I160000J0D01*
G01*
X15626000Y-5628410D02*
G75*
G02*
X15306000Y-5628410I-160000J0D01*
G01*
X15306000Y-5628410D02*
G75*
G02*
X15626000Y-5628410I160000J0D01*
G01*
D11*
X8258277Y-14316484D02*
X8258277Y-14116484D01*
X8258277Y-14116484D02*
X8305896Y-14116484D01*
X8305896Y-14116484D02*
X8334467Y-14126008D01*
X8334467Y-14126008D02*
X8353515Y-14145055D01*
X8353515Y-14145055D02*
X8363039Y-14164103D01*
X8363039Y-14164103D02*
X8372562Y-14202198D01*
X8372562Y-14202198D02*
X8372562Y-14230769D01*
X8372562Y-14230769D02*
X8363039Y-14268865D01*
X8363039Y-14268865D02*
X8353515Y-14287912D01*
X8353515Y-14287912D02*
X8334467Y-14306960D01*
X8334467Y-14306960D02*
X8305896Y-14316484D01*
X8305896Y-14316484D02*
X8258277Y-14316484D01*
X8458277Y-14316484D02*
X8458277Y-14183150D01*
X8458277Y-14221246D02*
X8467801Y-14202198D01*
X8467801Y-14202198D02*
X8477324Y-14192674D01*
X8477324Y-14192674D02*
X8496372Y-14183150D01*
X8496372Y-14183150D02*
X8515420Y-14183150D01*
X8582086Y-14316484D02*
X8582086Y-14183150D01*
X8582086Y-14116484D02*
X8572563Y-14126008D01*
X8572563Y-14126008D02*
X8582086Y-14135531D01*
X8582086Y-14135531D02*
X8591610Y-14126008D01*
X8591610Y-14126008D02*
X8582086Y-14116484D01*
X8582086Y-14116484D02*
X8582086Y-14135531D01*
X8705896Y-14316484D02*
X8686848Y-14306960D01*
X8686848Y-14306960D02*
X8677324Y-14287912D01*
X8677324Y-14287912D02*
X8677324Y-14116484D01*
X8810658Y-14316484D02*
X8791610Y-14306960D01*
X8791610Y-14306960D02*
X8782086Y-14287912D01*
X8782086Y-14287912D02*
X8782086Y-14116484D01*
X9039229Y-14316484D02*
X9039229Y-14116484D01*
X9039229Y-14116484D02*
X9105896Y-14259341D01*
X9105896Y-14259341D02*
X9172563Y-14116484D01*
X9172563Y-14116484D02*
X9172563Y-14316484D01*
X9353515Y-14316484D02*
X9353515Y-14211722D01*
X9353515Y-14211722D02*
X9343991Y-14192674D01*
X9343991Y-14192674D02*
X9324944Y-14183150D01*
X9324944Y-14183150D02*
X9286848Y-14183150D01*
X9286848Y-14183150D02*
X9267801Y-14192674D01*
X9353515Y-14306960D02*
X9334467Y-14316484D01*
X9334467Y-14316484D02*
X9286848Y-14316484D01*
X9286848Y-14316484D02*
X9267801Y-14306960D01*
X9267801Y-14306960D02*
X9258277Y-14287912D01*
X9258277Y-14287912D02*
X9258277Y-14268865D01*
X9258277Y-14268865D02*
X9267801Y-14249817D01*
X9267801Y-14249817D02*
X9286848Y-14240293D01*
X9286848Y-14240293D02*
X9334467Y-14240293D01*
X9334467Y-14240293D02*
X9353515Y-14230769D01*
X9448753Y-14183150D02*
X9448753Y-14383150D01*
X9448753Y-14192674D02*
X9467801Y-14183150D01*
X9467801Y-14183150D02*
X9505896Y-14183150D01*
X9505896Y-14183150D02*
X9524944Y-14192674D01*
X9524944Y-14192674D02*
X9534467Y-14202198D01*
X9534467Y-14202198D02*
X9543991Y-14221246D01*
X9543991Y-14221246D02*
X9543991Y-14278388D01*
X9543991Y-14278388D02*
X9534467Y-14297436D01*
X9534467Y-14297436D02*
X9524944Y-14306960D01*
X9524944Y-14306960D02*
X9505896Y-14316484D01*
X9505896Y-14316484D02*
X9467801Y-14316484D01*
X9467801Y-14316484D02*
X9448753Y-14306960D01*
X9629705Y-14297436D02*
X9639229Y-14306960D01*
X9639229Y-14306960D02*
X9629705Y-14316484D01*
X9629705Y-14316484D02*
X9620182Y-14306960D01*
X9620182Y-14306960D02*
X9629705Y-14297436D01*
X9629705Y-14297436D02*
X9629705Y-14316484D01*
X9629705Y-14192674D02*
X9639229Y-14202198D01*
X9639229Y-14202198D02*
X9629705Y-14211722D01*
X9629705Y-14211722D02*
X9620182Y-14202198D01*
X9620182Y-14202198D02*
X9629705Y-14192674D01*
X9629705Y-14192674D02*
X9629705Y-14211722D01*
D12*
X7917500Y-14605000D02*
X7997500Y-14685000D01*
X7997500Y-14605000D02*
X7917500Y-14685000D01*
D11*
X8296372Y-14536484D02*
X8315420Y-14536484D01*
X8315420Y-14536484D02*
X8334467Y-14546008D01*
X8334467Y-14546008D02*
X8343991Y-14555531D01*
X8343991Y-14555531D02*
X8353515Y-14574579D01*
X8353515Y-14574579D02*
X8363039Y-14612674D01*
X8363039Y-14612674D02*
X8363039Y-14660293D01*
X8363039Y-14660293D02*
X8353515Y-14698388D01*
X8353515Y-14698388D02*
X8343991Y-14717436D01*
X8343991Y-14717436D02*
X8334467Y-14726960D01*
X8334467Y-14726960D02*
X8315420Y-14736484D01*
X8315420Y-14736484D02*
X8296372Y-14736484D01*
X8296372Y-14736484D02*
X8277324Y-14726960D01*
X8277324Y-14726960D02*
X8267801Y-14717436D01*
X8267801Y-14717436D02*
X8258277Y-14698388D01*
X8258277Y-14698388D02*
X8248753Y-14660293D01*
X8248753Y-14660293D02*
X8248753Y-14612674D01*
X8248753Y-14612674D02*
X8258277Y-14574579D01*
X8258277Y-14574579D02*
X8267801Y-14555531D01*
X8267801Y-14555531D02*
X8277324Y-14546008D01*
X8277324Y-14546008D02*
X8296372Y-14536484D01*
X8448753Y-14717436D02*
X8458277Y-14726960D01*
X8458277Y-14726960D02*
X8448753Y-14736484D01*
X8448753Y-14736484D02*
X8439229Y-14726960D01*
X8439229Y-14726960D02*
X8448753Y-14717436D01*
X8448753Y-14717436D02*
X8448753Y-14736484D01*
X8572563Y-14622198D02*
X8553515Y-14612674D01*
X8553515Y-14612674D02*
X8543991Y-14603150D01*
X8543991Y-14603150D02*
X8534467Y-14584103D01*
X8534467Y-14584103D02*
X8534467Y-14574579D01*
X8534467Y-14574579D02*
X8543991Y-14555531D01*
X8543991Y-14555531D02*
X8553515Y-14546008D01*
X8553515Y-14546008D02*
X8572563Y-14536484D01*
X8572563Y-14536484D02*
X8610658Y-14536484D01*
X8610658Y-14536484D02*
X8629705Y-14546008D01*
X8629705Y-14546008D02*
X8639229Y-14555531D01*
X8639229Y-14555531D02*
X8648753Y-14574579D01*
X8648753Y-14574579D02*
X8648753Y-14584103D01*
X8648753Y-14584103D02*
X8639229Y-14603150D01*
X8639229Y-14603150D02*
X8629705Y-14612674D01*
X8629705Y-14612674D02*
X8610658Y-14622198D01*
X8610658Y-14622198D02*
X8572563Y-14622198D01*
X8572563Y-14622198D02*
X8553515Y-14631722D01*
X8553515Y-14631722D02*
X8543991Y-14641246D01*
X8543991Y-14641246D02*
X8534467Y-14660293D01*
X8534467Y-14660293D02*
X8534467Y-14698388D01*
X8534467Y-14698388D02*
X8543991Y-14717436D01*
X8543991Y-14717436D02*
X8553515Y-14726960D01*
X8553515Y-14726960D02*
X8572563Y-14736484D01*
X8572563Y-14736484D02*
X8610658Y-14736484D01*
X8610658Y-14736484D02*
X8629705Y-14726960D01*
X8629705Y-14726960D02*
X8639229Y-14717436D01*
X8639229Y-14717436D02*
X8648753Y-14698388D01*
X8648753Y-14698388D02*
X8648753Y-14660293D01*
X8648753Y-14660293D02*
X8639229Y-14641246D01*
X8639229Y-14641246D02*
X8629705Y-14631722D01*
X8629705Y-14631722D02*
X8610658Y-14622198D01*
X8772563Y-14536484D02*
X8791610Y-14536484D01*
X8791610Y-14536484D02*
X8810658Y-14546008D01*
X8810658Y-14546008D02*
X8820182Y-14555531D01*
X8820182Y-14555531D02*
X8829705Y-14574579D01*
X8829705Y-14574579D02*
X8839229Y-14612674D01*
X8839229Y-14612674D02*
X8839229Y-14660293D01*
X8839229Y-14660293D02*
X8829705Y-14698388D01*
X8829705Y-14698388D02*
X8820182Y-14717436D01*
X8820182Y-14717436D02*
X8810658Y-14726960D01*
X8810658Y-14726960D02*
X8791610Y-14736484D01*
X8791610Y-14736484D02*
X8772563Y-14736484D01*
X8772563Y-14736484D02*
X8753515Y-14726960D01*
X8753515Y-14726960D02*
X8743991Y-14717436D01*
X8743991Y-14717436D02*
X8734467Y-14698388D01*
X8734467Y-14698388D02*
X8724944Y-14660293D01*
X8724944Y-14660293D02*
X8724944Y-14612674D01*
X8724944Y-14612674D02*
X8734467Y-14574579D01*
X8734467Y-14574579D02*
X8743991Y-14555531D01*
X8743991Y-14555531D02*
X8753515Y-14546008D01*
X8753515Y-14546008D02*
X8772563Y-14536484D01*
X8963039Y-14536484D02*
X8982086Y-14536484D01*
X8982086Y-14536484D02*
X9001134Y-14546008D01*
X9001134Y-14546008D02*
X9010658Y-14555531D01*
X9010658Y-14555531D02*
X9020182Y-14574579D01*
X9020182Y-14574579D02*
X9029705Y-14612674D01*
X9029705Y-14612674D02*
X9029705Y-14660293D01*
X9029705Y-14660293D02*
X9020182Y-14698388D01*
X9020182Y-14698388D02*
X9010658Y-14717436D01*
X9010658Y-14717436D02*
X9001134Y-14726960D01*
X9001134Y-14726960D02*
X8982086Y-14736484D01*
X8982086Y-14736484D02*
X8963039Y-14736484D01*
X8963039Y-14736484D02*
X8943991Y-14726960D01*
X8943991Y-14726960D02*
X8934467Y-14717436D01*
X8934467Y-14717436D02*
X8924944Y-14698388D01*
X8924944Y-14698388D02*
X8915420Y-14660293D01*
X8915420Y-14660293D02*
X8915420Y-14612674D01*
X8915420Y-14612674D02*
X8924944Y-14574579D01*
X8924944Y-14574579D02*
X8934467Y-14555531D01*
X8934467Y-14555531D02*
X8943991Y-14546008D01*
X8943991Y-14546008D02*
X8963039Y-14536484D01*
X9115420Y-14736484D02*
X9115420Y-14603150D01*
X9115420Y-14622198D02*
X9124944Y-14612674D01*
X9124944Y-14612674D02*
X9143991Y-14603150D01*
X9143991Y-14603150D02*
X9172563Y-14603150D01*
X9172563Y-14603150D02*
X9191610Y-14612674D01*
X9191610Y-14612674D02*
X9201134Y-14631722D01*
X9201134Y-14631722D02*
X9201134Y-14736484D01*
X9201134Y-14631722D02*
X9210658Y-14612674D01*
X9210658Y-14612674D02*
X9229705Y-14603150D01*
X9229705Y-14603150D02*
X9258277Y-14603150D01*
X9258277Y-14603150D02*
X9277325Y-14612674D01*
X9277325Y-14612674D02*
X9286848Y-14631722D01*
X9286848Y-14631722D02*
X9286848Y-14736484D01*
X9382086Y-14736484D02*
X9382086Y-14603150D01*
X9382086Y-14622198D02*
X9391610Y-14612674D01*
X9391610Y-14612674D02*
X9410658Y-14603150D01*
X9410658Y-14603150D02*
X9439229Y-14603150D01*
X9439229Y-14603150D02*
X9458277Y-14612674D01*
X9458277Y-14612674D02*
X9467801Y-14631722D01*
X9467801Y-14631722D02*
X9467801Y-14736484D01*
X9467801Y-14631722D02*
X9477325Y-14612674D01*
X9477325Y-14612674D02*
X9496372Y-14603150D01*
X9496372Y-14603150D02*
X9524944Y-14603150D01*
X9524944Y-14603150D02*
X9543991Y-14612674D01*
X9543991Y-14612674D02*
X9553515Y-14631722D01*
X9553515Y-14631722D02*
X9553515Y-14736484D01*
X9943991Y-14526960D02*
X9772563Y-14784103D01*
X10201134Y-14536484D02*
X10220182Y-14536484D01*
X10220182Y-14536484D02*
X10239229Y-14546008D01*
X10239229Y-14546008D02*
X10248753Y-14555531D01*
X10248753Y-14555531D02*
X10258277Y-14574579D01*
X10258277Y-14574579D02*
X10267801Y-14612674D01*
X10267801Y-14612674D02*
X10267801Y-14660293D01*
X10267801Y-14660293D02*
X10258277Y-14698388D01*
X10258277Y-14698388D02*
X10248753Y-14717436D01*
X10248753Y-14717436D02*
X10239229Y-14726960D01*
X10239229Y-14726960D02*
X10220182Y-14736484D01*
X10220182Y-14736484D02*
X10201134Y-14736484D01*
X10201134Y-14736484D02*
X10182087Y-14726960D01*
X10182087Y-14726960D02*
X10172563Y-14717436D01*
X10172563Y-14717436D02*
X10163039Y-14698388D01*
X10163039Y-14698388D02*
X10153515Y-14660293D01*
X10153515Y-14660293D02*
X10153515Y-14612674D01*
X10153515Y-14612674D02*
X10163039Y-14574579D01*
X10163039Y-14574579D02*
X10172563Y-14555531D01*
X10172563Y-14555531D02*
X10182087Y-14546008D01*
X10182087Y-14546008D02*
X10201134Y-14536484D01*
X10353515Y-14717436D02*
X10363039Y-14726960D01*
X10363039Y-14726960D02*
X10353515Y-14736484D01*
X10353515Y-14736484D02*
X10343991Y-14726960D01*
X10343991Y-14726960D02*
X10353515Y-14717436D01*
X10353515Y-14717436D02*
X10353515Y-14736484D01*
X10486848Y-14536484D02*
X10505896Y-14536484D01*
X10505896Y-14536484D02*
X10524944Y-14546008D01*
X10524944Y-14546008D02*
X10534468Y-14555531D01*
X10534468Y-14555531D02*
X10543991Y-14574579D01*
X10543991Y-14574579D02*
X10553515Y-14612674D01*
X10553515Y-14612674D02*
X10553515Y-14660293D01*
X10553515Y-14660293D02*
X10543991Y-14698388D01*
X10543991Y-14698388D02*
X10534468Y-14717436D01*
X10534468Y-14717436D02*
X10524944Y-14726960D01*
X10524944Y-14726960D02*
X10505896Y-14736484D01*
X10505896Y-14736484D02*
X10486848Y-14736484D01*
X10486848Y-14736484D02*
X10467801Y-14726960D01*
X10467801Y-14726960D02*
X10458277Y-14717436D01*
X10458277Y-14717436D02*
X10448753Y-14698388D01*
X10448753Y-14698388D02*
X10439229Y-14660293D01*
X10439229Y-14660293D02*
X10439229Y-14612674D01*
X10439229Y-14612674D02*
X10448753Y-14574579D01*
X10448753Y-14574579D02*
X10458277Y-14555531D01*
X10458277Y-14555531D02*
X10467801Y-14546008D01*
X10467801Y-14546008D02*
X10486848Y-14536484D01*
X10620182Y-14536484D02*
X10743991Y-14536484D01*
X10743991Y-14536484D02*
X10677325Y-14612674D01*
X10677325Y-14612674D02*
X10705896Y-14612674D01*
X10705896Y-14612674D02*
X10724944Y-14622198D01*
X10724944Y-14622198D02*
X10734468Y-14631722D01*
X10734468Y-14631722D02*
X10743991Y-14650769D01*
X10743991Y-14650769D02*
X10743991Y-14698388D01*
X10743991Y-14698388D02*
X10734468Y-14717436D01*
X10734468Y-14717436D02*
X10724944Y-14726960D01*
X10724944Y-14726960D02*
X10705896Y-14736484D01*
X10705896Y-14736484D02*
X10648753Y-14736484D01*
X10648753Y-14736484D02*
X10629706Y-14726960D01*
X10629706Y-14726960D02*
X10620182Y-14717436D01*
X10934468Y-14736484D02*
X10820182Y-14736484D01*
X10877325Y-14736484D02*
X10877325Y-14536484D01*
X10877325Y-14536484D02*
X10858277Y-14565055D01*
X10858277Y-14565055D02*
X10839229Y-14584103D01*
X10839229Y-14584103D02*
X10820182Y-14593627D01*
X11115420Y-14536484D02*
X11020182Y-14536484D01*
X11020182Y-14536484D02*
X11010658Y-14631722D01*
X11010658Y-14631722D02*
X11020182Y-14622198D01*
X11020182Y-14622198D02*
X11039229Y-14612674D01*
X11039229Y-14612674D02*
X11086849Y-14612674D01*
X11086849Y-14612674D02*
X11105896Y-14622198D01*
X11105896Y-14622198D02*
X11115420Y-14631722D01*
X11115420Y-14631722D02*
X11124944Y-14650769D01*
X11124944Y-14650769D02*
X11124944Y-14698388D01*
X11124944Y-14698388D02*
X11115420Y-14717436D01*
X11115420Y-14717436D02*
X11105896Y-14726960D01*
X11105896Y-14726960D02*
X11086849Y-14736484D01*
X11086849Y-14736484D02*
X11039229Y-14736484D01*
X11039229Y-14736484D02*
X11020182Y-14726960D01*
X11020182Y-14726960D02*
X11010658Y-14717436D01*
X11201134Y-14536484D02*
X11201134Y-14574579D01*
X11277325Y-14536484D02*
X11277325Y-14574579D01*
X11572563Y-14812674D02*
X11563039Y-14803150D01*
X11563039Y-14803150D02*
X11543991Y-14774579D01*
X11543991Y-14774579D02*
X11534468Y-14755531D01*
X11534468Y-14755531D02*
X11524944Y-14726960D01*
X11524944Y-14726960D02*
X11515420Y-14679341D01*
X11515420Y-14679341D02*
X11515420Y-14641246D01*
X11515420Y-14641246D02*
X11524944Y-14593627D01*
X11524944Y-14593627D02*
X11534468Y-14565055D01*
X11534468Y-14565055D02*
X11543991Y-14546008D01*
X11543991Y-14546008D02*
X11563039Y-14517436D01*
X11563039Y-14517436D02*
X11572563Y-14507912D01*
X11639229Y-14555531D02*
X11648753Y-14546008D01*
X11648753Y-14546008D02*
X11667801Y-14536484D01*
X11667801Y-14536484D02*
X11715420Y-14536484D01*
X11715420Y-14536484D02*
X11734468Y-14546008D01*
X11734468Y-14546008D02*
X11743991Y-14555531D01*
X11743991Y-14555531D02*
X11753515Y-14574579D01*
X11753515Y-14574579D02*
X11753515Y-14593627D01*
X11753515Y-14593627D02*
X11743991Y-14622198D01*
X11743991Y-14622198D02*
X11629706Y-14736484D01*
X11629706Y-14736484D02*
X11753515Y-14736484D01*
X11991610Y-14736484D02*
X11991610Y-14536484D01*
X12077325Y-14736484D02*
X12077325Y-14631722D01*
X12077325Y-14631722D02*
X12067801Y-14612674D01*
X12067801Y-14612674D02*
X12048753Y-14603150D01*
X12048753Y-14603150D02*
X12020182Y-14603150D01*
X12020182Y-14603150D02*
X12001134Y-14612674D01*
X12001134Y-14612674D02*
X11991610Y-14622198D01*
X12201134Y-14736484D02*
X12182087Y-14726960D01*
X12182087Y-14726960D02*
X12172563Y-14717436D01*
X12172563Y-14717436D02*
X12163039Y-14698388D01*
X12163039Y-14698388D02*
X12163039Y-14641246D01*
X12163039Y-14641246D02*
X12172563Y-14622198D01*
X12172563Y-14622198D02*
X12182087Y-14612674D01*
X12182087Y-14612674D02*
X12201134Y-14603150D01*
X12201134Y-14603150D02*
X12229706Y-14603150D01*
X12229706Y-14603150D02*
X12248753Y-14612674D01*
X12248753Y-14612674D02*
X12258277Y-14622198D01*
X12258277Y-14622198D02*
X12267801Y-14641246D01*
X12267801Y-14641246D02*
X12267801Y-14698388D01*
X12267801Y-14698388D02*
X12258277Y-14717436D01*
X12258277Y-14717436D02*
X12248753Y-14726960D01*
X12248753Y-14726960D02*
X12229706Y-14736484D01*
X12229706Y-14736484D02*
X12201134Y-14736484D01*
X12382087Y-14736484D02*
X12363039Y-14726960D01*
X12363039Y-14726960D02*
X12353515Y-14707912D01*
X12353515Y-14707912D02*
X12353515Y-14536484D01*
X12534468Y-14726960D02*
X12515420Y-14736484D01*
X12515420Y-14736484D02*
X12477325Y-14736484D01*
X12477325Y-14736484D02*
X12458277Y-14726960D01*
X12458277Y-14726960D02*
X12448753Y-14707912D01*
X12448753Y-14707912D02*
X12448753Y-14631722D01*
X12448753Y-14631722D02*
X12458277Y-14612674D01*
X12458277Y-14612674D02*
X12477325Y-14603150D01*
X12477325Y-14603150D02*
X12515420Y-14603150D01*
X12515420Y-14603150D02*
X12534468Y-14612674D01*
X12534468Y-14612674D02*
X12543991Y-14631722D01*
X12543991Y-14631722D02*
X12543991Y-14650769D01*
X12543991Y-14650769D02*
X12448753Y-14669817D01*
X12620182Y-14726960D02*
X12639230Y-14736484D01*
X12639230Y-14736484D02*
X12677325Y-14736484D01*
X12677325Y-14736484D02*
X12696372Y-14726960D01*
X12696372Y-14726960D02*
X12705896Y-14707912D01*
X12705896Y-14707912D02*
X12705896Y-14698388D01*
X12705896Y-14698388D02*
X12696372Y-14679341D01*
X12696372Y-14679341D02*
X12677325Y-14669817D01*
X12677325Y-14669817D02*
X12648753Y-14669817D01*
X12648753Y-14669817D02*
X12629706Y-14660293D01*
X12629706Y-14660293D02*
X12620182Y-14641246D01*
X12620182Y-14641246D02*
X12620182Y-14631722D01*
X12620182Y-14631722D02*
X12629706Y-14612674D01*
X12629706Y-14612674D02*
X12648753Y-14603150D01*
X12648753Y-14603150D02*
X12677325Y-14603150D01*
X12677325Y-14603150D02*
X12696372Y-14612674D01*
X12772563Y-14812674D02*
X12782087Y-14803150D01*
X12782087Y-14803150D02*
X12801134Y-14774579D01*
X12801134Y-14774579D02*
X12810658Y-14755531D01*
X12810658Y-14755531D02*
X12820182Y-14726960D01*
X12820182Y-14726960D02*
X12829706Y-14679341D01*
X12829706Y-14679341D02*
X12829706Y-14641246D01*
X12829706Y-14641246D02*
X12820182Y-14593627D01*
X12820182Y-14593627D02*
X12810658Y-14565055D01*
X12810658Y-14565055D02*
X12801134Y-14546008D01*
X12801134Y-14546008D02*
X12782087Y-14517436D01*
X12782087Y-14517436D02*
X12772563Y-14507912D01*
X13134468Y-14812674D02*
X13124944Y-14803150D01*
X13124944Y-14803150D02*
X13105896Y-14774579D01*
X13105896Y-14774579D02*
X13096372Y-14755531D01*
X13096372Y-14755531D02*
X13086849Y-14726960D01*
X13086849Y-14726960D02*
X13077325Y-14679341D01*
X13077325Y-14679341D02*
X13077325Y-14641246D01*
X13077325Y-14641246D02*
X13086849Y-14593627D01*
X13086849Y-14593627D02*
X13096372Y-14565055D01*
X13096372Y-14565055D02*
X13105896Y-14546008D01*
X13105896Y-14546008D02*
X13124944Y-14517436D01*
X13124944Y-14517436D02*
X13134468Y-14507912D01*
X13210658Y-14603150D02*
X13210658Y-14736484D01*
X13210658Y-14622198D02*
X13220182Y-14612674D01*
X13220182Y-14612674D02*
X13239230Y-14603150D01*
X13239230Y-14603150D02*
X13267801Y-14603150D01*
X13267801Y-14603150D02*
X13286849Y-14612674D01*
X13286849Y-14612674D02*
X13296372Y-14631722D01*
X13296372Y-14631722D02*
X13296372Y-14736484D01*
X13420182Y-14736484D02*
X13401134Y-14726960D01*
X13401134Y-14726960D02*
X13391611Y-14717436D01*
X13391611Y-14717436D02*
X13382087Y-14698388D01*
X13382087Y-14698388D02*
X13382087Y-14641246D01*
X13382087Y-14641246D02*
X13391611Y-14622198D01*
X13391611Y-14622198D02*
X13401134Y-14612674D01*
X13401134Y-14612674D02*
X13420182Y-14603150D01*
X13420182Y-14603150D02*
X13448753Y-14603150D01*
X13448753Y-14603150D02*
X13467801Y-14612674D01*
X13467801Y-14612674D02*
X13477325Y-14622198D01*
X13477325Y-14622198D02*
X13486849Y-14641246D01*
X13486849Y-14641246D02*
X13486849Y-14698388D01*
X13486849Y-14698388D02*
X13477325Y-14717436D01*
X13477325Y-14717436D02*
X13467801Y-14726960D01*
X13467801Y-14726960D02*
X13448753Y-14736484D01*
X13448753Y-14736484D02*
X13420182Y-14736484D01*
X13543992Y-14603150D02*
X13620182Y-14603150D01*
X13572563Y-14536484D02*
X13572563Y-14707912D01*
X13572563Y-14707912D02*
X13582087Y-14726960D01*
X13582087Y-14726960D02*
X13601134Y-14736484D01*
X13601134Y-14736484D02*
X13620182Y-14736484D01*
X13839230Y-14603150D02*
X13839230Y-14803150D01*
X13839230Y-14612674D02*
X13858277Y-14603150D01*
X13858277Y-14603150D02*
X13896373Y-14603150D01*
X13896373Y-14603150D02*
X13915420Y-14612674D01*
X13915420Y-14612674D02*
X13924944Y-14622198D01*
X13924944Y-14622198D02*
X13934468Y-14641246D01*
X13934468Y-14641246D02*
X13934468Y-14698388D01*
X13934468Y-14698388D02*
X13924944Y-14717436D01*
X13924944Y-14717436D02*
X13915420Y-14726960D01*
X13915420Y-14726960D02*
X13896373Y-14736484D01*
X13896373Y-14736484D02*
X13858277Y-14736484D01*
X13858277Y-14736484D02*
X13839230Y-14726960D01*
X14048753Y-14736484D02*
X14029706Y-14726960D01*
X14029706Y-14726960D02*
X14020182Y-14707912D01*
X14020182Y-14707912D02*
X14020182Y-14536484D01*
X14210658Y-14736484D02*
X14210658Y-14631722D01*
X14210658Y-14631722D02*
X14201134Y-14612674D01*
X14201134Y-14612674D02*
X14182087Y-14603150D01*
X14182087Y-14603150D02*
X14143992Y-14603150D01*
X14143992Y-14603150D02*
X14124944Y-14612674D01*
X14210658Y-14726960D02*
X14191611Y-14736484D01*
X14191611Y-14736484D02*
X14143992Y-14736484D01*
X14143992Y-14736484D02*
X14124944Y-14726960D01*
X14124944Y-14726960D02*
X14115420Y-14707912D01*
X14115420Y-14707912D02*
X14115420Y-14688865D01*
X14115420Y-14688865D02*
X14124944Y-14669817D01*
X14124944Y-14669817D02*
X14143992Y-14660293D01*
X14143992Y-14660293D02*
X14191611Y-14660293D01*
X14191611Y-14660293D02*
X14210658Y-14650769D01*
X14277325Y-14603150D02*
X14353515Y-14603150D01*
X14305896Y-14536484D02*
X14305896Y-14707912D01*
X14305896Y-14707912D02*
X14315420Y-14726960D01*
X14315420Y-14726960D02*
X14334468Y-14736484D01*
X14334468Y-14736484D02*
X14353515Y-14736484D01*
X14496373Y-14726960D02*
X14477325Y-14736484D01*
X14477325Y-14736484D02*
X14439230Y-14736484D01*
X14439230Y-14736484D02*
X14420182Y-14726960D01*
X14420182Y-14726960D02*
X14410658Y-14707912D01*
X14410658Y-14707912D02*
X14410658Y-14631722D01*
X14410658Y-14631722D02*
X14420182Y-14612674D01*
X14420182Y-14612674D02*
X14439230Y-14603150D01*
X14439230Y-14603150D02*
X14477325Y-14603150D01*
X14477325Y-14603150D02*
X14496373Y-14612674D01*
X14496373Y-14612674D02*
X14505896Y-14631722D01*
X14505896Y-14631722D02*
X14505896Y-14650769D01*
X14505896Y-14650769D02*
X14410658Y-14669817D01*
X14677325Y-14736484D02*
X14677325Y-14536484D01*
X14677325Y-14726960D02*
X14658277Y-14736484D01*
X14658277Y-14736484D02*
X14620182Y-14736484D01*
X14620182Y-14736484D02*
X14601134Y-14726960D01*
X14601134Y-14726960D02*
X14591611Y-14717436D01*
X14591611Y-14717436D02*
X14582087Y-14698388D01*
X14582087Y-14698388D02*
X14582087Y-14641246D01*
X14582087Y-14641246D02*
X14591611Y-14622198D01*
X14591611Y-14622198D02*
X14601134Y-14612674D01*
X14601134Y-14612674D02*
X14620182Y-14603150D01*
X14620182Y-14603150D02*
X14658277Y-14603150D01*
X14658277Y-14603150D02*
X14677325Y-14612674D01*
X14753515Y-14812674D02*
X14763039Y-14803150D01*
X14763039Y-14803150D02*
X14782087Y-14774579D01*
X14782087Y-14774579D02*
X14791611Y-14755531D01*
X14791611Y-14755531D02*
X14801134Y-14726960D01*
X14801134Y-14726960D02*
X14810658Y-14679341D01*
X14810658Y-14679341D02*
X14810658Y-14641246D01*
X14810658Y-14641246D02*
X14801134Y-14593627D01*
X14801134Y-14593627D02*
X14791611Y-14565055D01*
X14791611Y-14565055D02*
X14782087Y-14546008D01*
X14782087Y-14546008D02*
X14763039Y-14517436D01*
X14763039Y-14517436D02*
X14753515Y-14507912D01*
X7997500Y-14909000D02*
G75*
G02*
X7797500Y-14909000I-100000J0D01*
G01*
X7797500Y-14909000D02*
G75*
G02*
X7997500Y-14909000I100000J0D01*
G01*
X8239229Y-14800484D02*
X8363039Y-14800484D01*
X8363039Y-14800484D02*
X8296372Y-14876674D01*
X8296372Y-14876674D02*
X8324943Y-14876674D01*
X8324943Y-14876674D02*
X8343991Y-14886198D01*
X8343991Y-14886198D02*
X8353515Y-14895722D01*
X8353515Y-14895722D02*
X8363039Y-14914769D01*
X8363039Y-14914769D02*
X8363039Y-14962388D01*
X8363039Y-14962388D02*
X8353515Y-14981436D01*
X8353515Y-14981436D02*
X8343991Y-14990960D01*
X8343991Y-14990960D02*
X8324943Y-15000484D01*
X8324943Y-15000484D02*
X8267801Y-15000484D01*
X8267801Y-15000484D02*
X8248753Y-14990960D01*
X8248753Y-14990960D02*
X8239229Y-14981436D01*
X8448753Y-14981436D02*
X8458277Y-14990960D01*
X8458277Y-14990960D02*
X8448753Y-15000484D01*
X8448753Y-15000484D02*
X8439229Y-14990960D01*
X8439229Y-14990960D02*
X8448753Y-14981436D01*
X8448753Y-14981436D02*
X8448753Y-15000484D01*
X8534467Y-14819531D02*
X8543991Y-14810008D01*
X8543991Y-14810008D02*
X8563039Y-14800484D01*
X8563039Y-14800484D02*
X8610658Y-14800484D01*
X8610658Y-14800484D02*
X8629705Y-14810008D01*
X8629705Y-14810008D02*
X8639229Y-14819531D01*
X8639229Y-14819531D02*
X8648753Y-14838579D01*
X8648753Y-14838579D02*
X8648753Y-14857627D01*
X8648753Y-14857627D02*
X8639229Y-14886198D01*
X8639229Y-14886198D02*
X8524944Y-15000484D01*
X8524944Y-15000484D02*
X8648753Y-15000484D01*
X8772563Y-14800484D02*
X8791610Y-14800484D01*
X8791610Y-14800484D02*
X8810658Y-14810008D01*
X8810658Y-14810008D02*
X8820182Y-14819531D01*
X8820182Y-14819531D02*
X8829705Y-14838579D01*
X8829705Y-14838579D02*
X8839229Y-14876674D01*
X8839229Y-14876674D02*
X8839229Y-14924293D01*
X8839229Y-14924293D02*
X8829705Y-14962388D01*
X8829705Y-14962388D02*
X8820182Y-14981436D01*
X8820182Y-14981436D02*
X8810658Y-14990960D01*
X8810658Y-14990960D02*
X8791610Y-15000484D01*
X8791610Y-15000484D02*
X8772563Y-15000484D01*
X8772563Y-15000484D02*
X8753515Y-14990960D01*
X8753515Y-14990960D02*
X8743991Y-14981436D01*
X8743991Y-14981436D02*
X8734467Y-14962388D01*
X8734467Y-14962388D02*
X8724944Y-14924293D01*
X8724944Y-14924293D02*
X8724944Y-14876674D01*
X8724944Y-14876674D02*
X8734467Y-14838579D01*
X8734467Y-14838579D02*
X8743991Y-14819531D01*
X8743991Y-14819531D02*
X8753515Y-14810008D01*
X8753515Y-14810008D02*
X8772563Y-14800484D01*
X8963039Y-14800484D02*
X8982086Y-14800484D01*
X8982086Y-14800484D02*
X9001134Y-14810008D01*
X9001134Y-14810008D02*
X9010658Y-14819531D01*
X9010658Y-14819531D02*
X9020182Y-14838579D01*
X9020182Y-14838579D02*
X9029705Y-14876674D01*
X9029705Y-14876674D02*
X9029705Y-14924293D01*
X9029705Y-14924293D02*
X9020182Y-14962388D01*
X9020182Y-14962388D02*
X9010658Y-14981436D01*
X9010658Y-14981436D02*
X9001134Y-14990960D01*
X9001134Y-14990960D02*
X8982086Y-15000484D01*
X8982086Y-15000484D02*
X8963039Y-15000484D01*
X8963039Y-15000484D02*
X8943991Y-14990960D01*
X8943991Y-14990960D02*
X8934467Y-14981436D01*
X8934467Y-14981436D02*
X8924944Y-14962388D01*
X8924944Y-14962388D02*
X8915420Y-14924293D01*
X8915420Y-14924293D02*
X8915420Y-14876674D01*
X8915420Y-14876674D02*
X8924944Y-14838579D01*
X8924944Y-14838579D02*
X8934467Y-14819531D01*
X8934467Y-14819531D02*
X8943991Y-14810008D01*
X8943991Y-14810008D02*
X8963039Y-14800484D01*
X9115420Y-15000484D02*
X9115420Y-14867150D01*
X9115420Y-14886198D02*
X9124944Y-14876674D01*
X9124944Y-14876674D02*
X9143991Y-14867150D01*
X9143991Y-14867150D02*
X9172563Y-14867150D01*
X9172563Y-14867150D02*
X9191610Y-14876674D01*
X9191610Y-14876674D02*
X9201134Y-14895722D01*
X9201134Y-14895722D02*
X9201134Y-15000484D01*
X9201134Y-14895722D02*
X9210658Y-14876674D01*
X9210658Y-14876674D02*
X9229705Y-14867150D01*
X9229705Y-14867150D02*
X9258277Y-14867150D01*
X9258277Y-14867150D02*
X9277325Y-14876674D01*
X9277325Y-14876674D02*
X9286848Y-14895722D01*
X9286848Y-14895722D02*
X9286848Y-15000484D01*
X9382086Y-15000484D02*
X9382086Y-14867150D01*
X9382086Y-14886198D02*
X9391610Y-14876674D01*
X9391610Y-14876674D02*
X9410658Y-14867150D01*
X9410658Y-14867150D02*
X9439229Y-14867150D01*
X9439229Y-14867150D02*
X9458277Y-14876674D01*
X9458277Y-14876674D02*
X9467801Y-14895722D01*
X9467801Y-14895722D02*
X9467801Y-15000484D01*
X9467801Y-14895722D02*
X9477325Y-14876674D01*
X9477325Y-14876674D02*
X9496372Y-14867150D01*
X9496372Y-14867150D02*
X9524944Y-14867150D01*
X9524944Y-14867150D02*
X9543991Y-14876674D01*
X9543991Y-14876674D02*
X9553515Y-14895722D01*
X9553515Y-14895722D02*
X9553515Y-15000484D01*
X9943991Y-14790960D02*
X9772563Y-15048103D01*
X10201134Y-14800484D02*
X10220182Y-14800484D01*
X10220182Y-14800484D02*
X10239229Y-14810008D01*
X10239229Y-14810008D02*
X10248753Y-14819531D01*
X10248753Y-14819531D02*
X10258277Y-14838579D01*
X10258277Y-14838579D02*
X10267801Y-14876674D01*
X10267801Y-14876674D02*
X10267801Y-14924293D01*
X10267801Y-14924293D02*
X10258277Y-14962388D01*
X10258277Y-14962388D02*
X10248753Y-14981436D01*
X10248753Y-14981436D02*
X10239229Y-14990960D01*
X10239229Y-14990960D02*
X10220182Y-15000484D01*
X10220182Y-15000484D02*
X10201134Y-15000484D01*
X10201134Y-15000484D02*
X10182087Y-14990960D01*
X10182087Y-14990960D02*
X10172563Y-14981436D01*
X10172563Y-14981436D02*
X10163039Y-14962388D01*
X10163039Y-14962388D02*
X10153515Y-14924293D01*
X10153515Y-14924293D02*
X10153515Y-14876674D01*
X10153515Y-14876674D02*
X10163039Y-14838579D01*
X10163039Y-14838579D02*
X10172563Y-14819531D01*
X10172563Y-14819531D02*
X10182087Y-14810008D01*
X10182087Y-14810008D02*
X10201134Y-14800484D01*
X10353515Y-14981436D02*
X10363039Y-14990960D01*
X10363039Y-14990960D02*
X10353515Y-15000484D01*
X10353515Y-15000484D02*
X10343991Y-14990960D01*
X10343991Y-14990960D02*
X10353515Y-14981436D01*
X10353515Y-14981436D02*
X10353515Y-15000484D01*
X10553515Y-15000484D02*
X10439229Y-15000484D01*
X10496372Y-15000484D02*
X10496372Y-14800484D01*
X10496372Y-14800484D02*
X10477325Y-14829055D01*
X10477325Y-14829055D02*
X10458277Y-14848103D01*
X10458277Y-14848103D02*
X10439229Y-14857627D01*
X10629706Y-14819531D02*
X10639229Y-14810008D01*
X10639229Y-14810008D02*
X10658277Y-14800484D01*
X10658277Y-14800484D02*
X10705896Y-14800484D01*
X10705896Y-14800484D02*
X10724944Y-14810008D01*
X10724944Y-14810008D02*
X10734468Y-14819531D01*
X10734468Y-14819531D02*
X10743991Y-14838579D01*
X10743991Y-14838579D02*
X10743991Y-14857627D01*
X10743991Y-14857627D02*
X10734468Y-14886198D01*
X10734468Y-14886198D02*
X10620182Y-15000484D01*
X10620182Y-15000484D02*
X10743991Y-15000484D01*
X10915420Y-14800484D02*
X10877325Y-14800484D01*
X10877325Y-14800484D02*
X10858277Y-14810008D01*
X10858277Y-14810008D02*
X10848753Y-14819531D01*
X10848753Y-14819531D02*
X10829706Y-14848103D01*
X10829706Y-14848103D02*
X10820182Y-14886198D01*
X10820182Y-14886198D02*
X10820182Y-14962388D01*
X10820182Y-14962388D02*
X10829706Y-14981436D01*
X10829706Y-14981436D02*
X10839229Y-14990960D01*
X10839229Y-14990960D02*
X10858277Y-15000484D01*
X10858277Y-15000484D02*
X10896372Y-15000484D01*
X10896372Y-15000484D02*
X10915420Y-14990960D01*
X10915420Y-14990960D02*
X10924944Y-14981436D01*
X10924944Y-14981436D02*
X10934468Y-14962388D01*
X10934468Y-14962388D02*
X10934468Y-14914769D01*
X10934468Y-14914769D02*
X10924944Y-14895722D01*
X10924944Y-14895722D02*
X10915420Y-14886198D01*
X10915420Y-14886198D02*
X10896372Y-14876674D01*
X10896372Y-14876674D02*
X10858277Y-14876674D01*
X10858277Y-14876674D02*
X10839229Y-14886198D01*
X10839229Y-14886198D02*
X10829706Y-14895722D01*
X10829706Y-14895722D02*
X10820182Y-14914769D01*
X11058277Y-14800484D02*
X11077325Y-14800484D01*
X11077325Y-14800484D02*
X11096372Y-14810008D01*
X11096372Y-14810008D02*
X11105896Y-14819531D01*
X11105896Y-14819531D02*
X11115420Y-14838579D01*
X11115420Y-14838579D02*
X11124944Y-14876674D01*
X11124944Y-14876674D02*
X11124944Y-14924293D01*
X11124944Y-14924293D02*
X11115420Y-14962388D01*
X11115420Y-14962388D02*
X11105896Y-14981436D01*
X11105896Y-14981436D02*
X11096372Y-14990960D01*
X11096372Y-14990960D02*
X11077325Y-15000484D01*
X11077325Y-15000484D02*
X11058277Y-15000484D01*
X11058277Y-15000484D02*
X11039229Y-14990960D01*
X11039229Y-14990960D02*
X11029706Y-14981436D01*
X11029706Y-14981436D02*
X11020182Y-14962388D01*
X11020182Y-14962388D02*
X11010658Y-14924293D01*
X11010658Y-14924293D02*
X11010658Y-14876674D01*
X11010658Y-14876674D02*
X11020182Y-14838579D01*
X11020182Y-14838579D02*
X11029706Y-14819531D01*
X11029706Y-14819531D02*
X11039229Y-14810008D01*
X11039229Y-14810008D02*
X11058277Y-14800484D01*
X11201134Y-14800484D02*
X11201134Y-14838579D01*
X11277325Y-14800484D02*
X11277325Y-14838579D01*
X11572563Y-15076674D02*
X11563039Y-15067150D01*
X11563039Y-15067150D02*
X11543991Y-15038579D01*
X11543991Y-15038579D02*
X11534468Y-15019531D01*
X11534468Y-15019531D02*
X11524944Y-14990960D01*
X11524944Y-14990960D02*
X11515420Y-14943341D01*
X11515420Y-14943341D02*
X11515420Y-14905246D01*
X11515420Y-14905246D02*
X11524944Y-14857627D01*
X11524944Y-14857627D02*
X11534468Y-14829055D01*
X11534468Y-14829055D02*
X11543991Y-14810008D01*
X11543991Y-14810008D02*
X11563039Y-14781436D01*
X11563039Y-14781436D02*
X11572563Y-14771912D01*
X11734468Y-14867150D02*
X11734468Y-15000484D01*
X11686848Y-14790960D02*
X11639229Y-14933817D01*
X11639229Y-14933817D02*
X11763039Y-14933817D01*
X11991610Y-15000484D02*
X11991610Y-14800484D01*
X12077325Y-15000484D02*
X12077325Y-14895722D01*
X12077325Y-14895722D02*
X12067801Y-14876674D01*
X12067801Y-14876674D02*
X12048753Y-14867150D01*
X12048753Y-14867150D02*
X12020182Y-14867150D01*
X12020182Y-14867150D02*
X12001134Y-14876674D01*
X12001134Y-14876674D02*
X11991610Y-14886198D01*
X12201134Y-15000484D02*
X12182087Y-14990960D01*
X12182087Y-14990960D02*
X12172563Y-14981436D01*
X12172563Y-14981436D02*
X12163039Y-14962388D01*
X12163039Y-14962388D02*
X12163039Y-14905246D01*
X12163039Y-14905246D02*
X12172563Y-14886198D01*
X12172563Y-14886198D02*
X12182087Y-14876674D01*
X12182087Y-14876674D02*
X12201134Y-14867150D01*
X12201134Y-14867150D02*
X12229706Y-14867150D01*
X12229706Y-14867150D02*
X12248753Y-14876674D01*
X12248753Y-14876674D02*
X12258277Y-14886198D01*
X12258277Y-14886198D02*
X12267801Y-14905246D01*
X12267801Y-14905246D02*
X12267801Y-14962388D01*
X12267801Y-14962388D02*
X12258277Y-14981436D01*
X12258277Y-14981436D02*
X12248753Y-14990960D01*
X12248753Y-14990960D02*
X12229706Y-15000484D01*
X12229706Y-15000484D02*
X12201134Y-15000484D01*
X12382087Y-15000484D02*
X12363039Y-14990960D01*
X12363039Y-14990960D02*
X12353515Y-14971912D01*
X12353515Y-14971912D02*
X12353515Y-14800484D01*
X12534468Y-14990960D02*
X12515420Y-15000484D01*
X12515420Y-15000484D02*
X12477325Y-15000484D01*
X12477325Y-15000484D02*
X12458277Y-14990960D01*
X12458277Y-14990960D02*
X12448753Y-14971912D01*
X12448753Y-14971912D02*
X12448753Y-14895722D01*
X12448753Y-14895722D02*
X12458277Y-14876674D01*
X12458277Y-14876674D02*
X12477325Y-14867150D01*
X12477325Y-14867150D02*
X12515420Y-14867150D01*
X12515420Y-14867150D02*
X12534468Y-14876674D01*
X12534468Y-14876674D02*
X12543991Y-14895722D01*
X12543991Y-14895722D02*
X12543991Y-14914769D01*
X12543991Y-14914769D02*
X12448753Y-14933817D01*
X12620182Y-14990960D02*
X12639230Y-15000484D01*
X12639230Y-15000484D02*
X12677325Y-15000484D01*
X12677325Y-15000484D02*
X12696372Y-14990960D01*
X12696372Y-14990960D02*
X12705896Y-14971912D01*
X12705896Y-14971912D02*
X12705896Y-14962388D01*
X12705896Y-14962388D02*
X12696372Y-14943341D01*
X12696372Y-14943341D02*
X12677325Y-14933817D01*
X12677325Y-14933817D02*
X12648753Y-14933817D01*
X12648753Y-14933817D02*
X12629706Y-14924293D01*
X12629706Y-14924293D02*
X12620182Y-14905246D01*
X12620182Y-14905246D02*
X12620182Y-14895722D01*
X12620182Y-14895722D02*
X12629706Y-14876674D01*
X12629706Y-14876674D02*
X12648753Y-14867150D01*
X12648753Y-14867150D02*
X12677325Y-14867150D01*
X12677325Y-14867150D02*
X12696372Y-14876674D01*
X12772563Y-15076674D02*
X12782087Y-15067150D01*
X12782087Y-15067150D02*
X12801134Y-15038579D01*
X12801134Y-15038579D02*
X12810658Y-15019531D01*
X12810658Y-15019531D02*
X12820182Y-14990960D01*
X12820182Y-14990960D02*
X12829706Y-14943341D01*
X12829706Y-14943341D02*
X12829706Y-14905246D01*
X12829706Y-14905246D02*
X12820182Y-14857627D01*
X12820182Y-14857627D02*
X12810658Y-14829055D01*
X12810658Y-14829055D02*
X12801134Y-14810008D01*
X12801134Y-14810008D02*
X12782087Y-14781436D01*
X12782087Y-14781436D02*
X12772563Y-14771912D01*
X13134468Y-15076674D02*
X13124944Y-15067150D01*
X13124944Y-15067150D02*
X13105896Y-15038579D01*
X13105896Y-15038579D02*
X13096372Y-15019531D01*
X13096372Y-15019531D02*
X13086849Y-14990960D01*
X13086849Y-14990960D02*
X13077325Y-14943341D01*
X13077325Y-14943341D02*
X13077325Y-14905246D01*
X13077325Y-14905246D02*
X13086849Y-14857627D01*
X13086849Y-14857627D02*
X13096372Y-14829055D01*
X13096372Y-14829055D02*
X13105896Y-14810008D01*
X13105896Y-14810008D02*
X13124944Y-14781436D01*
X13124944Y-14781436D02*
X13134468Y-14771912D01*
X13210658Y-14867150D02*
X13210658Y-15000484D01*
X13210658Y-14886198D02*
X13220182Y-14876674D01*
X13220182Y-14876674D02*
X13239230Y-14867150D01*
X13239230Y-14867150D02*
X13267801Y-14867150D01*
X13267801Y-14867150D02*
X13286849Y-14876674D01*
X13286849Y-14876674D02*
X13296372Y-14895722D01*
X13296372Y-14895722D02*
X13296372Y-15000484D01*
X13420182Y-15000484D02*
X13401134Y-14990960D01*
X13401134Y-14990960D02*
X13391611Y-14981436D01*
X13391611Y-14981436D02*
X13382087Y-14962388D01*
X13382087Y-14962388D02*
X13382087Y-14905246D01*
X13382087Y-14905246D02*
X13391611Y-14886198D01*
X13391611Y-14886198D02*
X13401134Y-14876674D01*
X13401134Y-14876674D02*
X13420182Y-14867150D01*
X13420182Y-14867150D02*
X13448753Y-14867150D01*
X13448753Y-14867150D02*
X13467801Y-14876674D01*
X13467801Y-14876674D02*
X13477325Y-14886198D01*
X13477325Y-14886198D02*
X13486849Y-14905246D01*
X13486849Y-14905246D02*
X13486849Y-14962388D01*
X13486849Y-14962388D02*
X13477325Y-14981436D01*
X13477325Y-14981436D02*
X13467801Y-14990960D01*
X13467801Y-14990960D02*
X13448753Y-15000484D01*
X13448753Y-15000484D02*
X13420182Y-15000484D01*
X13543992Y-14867150D02*
X13620182Y-14867150D01*
X13572563Y-14800484D02*
X13572563Y-14971912D01*
X13572563Y-14971912D02*
X13582087Y-14990960D01*
X13582087Y-14990960D02*
X13601134Y-15000484D01*
X13601134Y-15000484D02*
X13620182Y-15000484D01*
X13839230Y-14867150D02*
X13839230Y-15067150D01*
X13839230Y-14876674D02*
X13858277Y-14867150D01*
X13858277Y-14867150D02*
X13896373Y-14867150D01*
X13896373Y-14867150D02*
X13915420Y-14876674D01*
X13915420Y-14876674D02*
X13924944Y-14886198D01*
X13924944Y-14886198D02*
X13934468Y-14905246D01*
X13934468Y-14905246D02*
X13934468Y-14962388D01*
X13934468Y-14962388D02*
X13924944Y-14981436D01*
X13924944Y-14981436D02*
X13915420Y-14990960D01*
X13915420Y-14990960D02*
X13896373Y-15000484D01*
X13896373Y-15000484D02*
X13858277Y-15000484D01*
X13858277Y-15000484D02*
X13839230Y-14990960D01*
X14048753Y-15000484D02*
X14029706Y-14990960D01*
X14029706Y-14990960D02*
X14020182Y-14971912D01*
X14020182Y-14971912D02*
X14020182Y-14800484D01*
X14210658Y-15000484D02*
X14210658Y-14895722D01*
X14210658Y-14895722D02*
X14201134Y-14876674D01*
X14201134Y-14876674D02*
X14182087Y-14867150D01*
X14182087Y-14867150D02*
X14143992Y-14867150D01*
X14143992Y-14867150D02*
X14124944Y-14876674D01*
X14210658Y-14990960D02*
X14191611Y-15000484D01*
X14191611Y-15000484D02*
X14143992Y-15000484D01*
X14143992Y-15000484D02*
X14124944Y-14990960D01*
X14124944Y-14990960D02*
X14115420Y-14971912D01*
X14115420Y-14971912D02*
X14115420Y-14952865D01*
X14115420Y-14952865D02*
X14124944Y-14933817D01*
X14124944Y-14933817D02*
X14143992Y-14924293D01*
X14143992Y-14924293D02*
X14191611Y-14924293D01*
X14191611Y-14924293D02*
X14210658Y-14914769D01*
X14277325Y-14867150D02*
X14353515Y-14867150D01*
X14305896Y-14800484D02*
X14305896Y-14971912D01*
X14305896Y-14971912D02*
X14315420Y-14990960D01*
X14315420Y-14990960D02*
X14334468Y-15000484D01*
X14334468Y-15000484D02*
X14353515Y-15000484D01*
X14496373Y-14990960D02*
X14477325Y-15000484D01*
X14477325Y-15000484D02*
X14439230Y-15000484D01*
X14439230Y-15000484D02*
X14420182Y-14990960D01*
X14420182Y-14990960D02*
X14410658Y-14971912D01*
X14410658Y-14971912D02*
X14410658Y-14895722D01*
X14410658Y-14895722D02*
X14420182Y-14876674D01*
X14420182Y-14876674D02*
X14439230Y-14867150D01*
X14439230Y-14867150D02*
X14477325Y-14867150D01*
X14477325Y-14867150D02*
X14496373Y-14876674D01*
X14496373Y-14876674D02*
X14505896Y-14895722D01*
X14505896Y-14895722D02*
X14505896Y-14914769D01*
X14505896Y-14914769D02*
X14410658Y-14933817D01*
X14677325Y-15000484D02*
X14677325Y-14800484D01*
X14677325Y-14990960D02*
X14658277Y-15000484D01*
X14658277Y-15000484D02*
X14620182Y-15000484D01*
X14620182Y-15000484D02*
X14601134Y-14990960D01*
X14601134Y-14990960D02*
X14591611Y-14981436D01*
X14591611Y-14981436D02*
X14582087Y-14962388D01*
X14582087Y-14962388D02*
X14582087Y-14905246D01*
X14582087Y-14905246D02*
X14591611Y-14886198D01*
X14591611Y-14886198D02*
X14601134Y-14876674D01*
X14601134Y-14876674D02*
X14620182Y-14867150D01*
X14620182Y-14867150D02*
X14658277Y-14867150D01*
X14658277Y-14867150D02*
X14677325Y-14876674D01*
X14753515Y-15076674D02*
X14763039Y-15067150D01*
X14763039Y-15067150D02*
X14782087Y-15038579D01*
X14782087Y-15038579D02*
X14791611Y-15019531D01*
X14791611Y-15019531D02*
X14801134Y-14990960D01*
X14801134Y-14990960D02*
X14810658Y-14943341D01*
X14810658Y-14943341D02*
X14810658Y-14905246D01*
X14810658Y-14905246D02*
X14801134Y-14857627D01*
X14801134Y-14857627D02*
X14791611Y-14829055D01*
X14791611Y-14829055D02*
X14782087Y-14810008D01*
X14782087Y-14810008D02*
X14763039Y-14781436D01*
X14763039Y-14781436D02*
X14753515Y-14771912D01*
M02*
