%TF.GenerationSoftware,KiCad,Pcbnew,8.0.0*%
%TF.CreationDate,2024-05-11T21:48:03-06:00*%
%TF.ProjectId,PLACAROUTEADA,504c4143-4152-44f5-9554-454144412e6b,rev?*%
%TF.SameCoordinates,Original*%
%TF.FileFunction,Soldermask,Bot*%
%TF.FilePolarity,Negative*%
%FSLAX46Y46*%
G04 Gerber Fmt 4.6, Leading zero omitted, Abs format (unit mm)*
G04 Created by KiCad (PCBNEW 8.0.0) date 2024-05-11 21:48:03*
%MOMM*%
%LPD*%
G01*
G04 APERTURE LIST*
G04 Aperture macros list*
%AMRoundRect*
0 Rectangle with rounded corners*
0 $1 Rounding radius*
0 $2 $3 $4 $5 $6 $7 $8 $9 X,Y pos of 4 corners*
0 Add a 4 corners polygon primitive as box body*
4,1,4,$2,$3,$4,$5,$6,$7,$8,$9,$2,$3,0*
0 Add four circle primitives for the rounded corners*
1,1,$1+$1,$2,$3*
1,1,$1+$1,$4,$5*
1,1,$1+$1,$6,$7*
1,1,$1+$1,$8,$9*
0 Add four rect primitives between the rounded corners*
20,1,$1+$1,$2,$3,$4,$5,0*
20,1,$1+$1,$4,$5,$6,$7,0*
20,1,$1+$1,$6,$7,$8,$9,0*
20,1,$1+$1,$8,$9,$2,$3,0*%
G04 Aperture macros list end*
%ADD10C,2.000000*%
%ADD11C,3.200000*%
%ADD12O,0.800000X0.800000*%
%ADD13O,1.800000X1.150000*%
%ADD14O,2.000000X1.450000*%
%ADD15R,1.700000X1.700000*%
%ADD16O,1.700000X1.700000*%
%ADD17C,1.000000*%
%ADD18C,4.000000*%
%ADD19C,1.500000*%
%ADD20RoundRect,0.237500X0.300000X0.237500X-0.300000X0.237500X-0.300000X-0.237500X0.300000X-0.237500X0*%
%ADD21RoundRect,0.237500X0.250000X0.237500X-0.250000X0.237500X-0.250000X-0.237500X0.250000X-0.237500X0*%
%ADD22RoundRect,0.250000X0.412500X0.650000X-0.412500X0.650000X-0.412500X-0.650000X0.412500X-0.650000X0*%
%ADD23RoundRect,0.237500X0.237500X-0.300000X0.237500X0.300000X-0.237500X0.300000X-0.237500X-0.300000X0*%
%ADD24RoundRect,0.237500X-0.237500X0.250000X-0.237500X-0.250000X0.237500X-0.250000X0.237500X0.250000X0*%
%ADD25R,0.458000X1.510000*%
%ADD26RoundRect,0.237500X0.237500X-0.250000X0.237500X0.250000X-0.237500X0.250000X-0.237500X-0.250000X0*%
%ADD27RoundRect,0.237500X-0.300000X-0.237500X0.300000X-0.237500X0.300000X0.237500X-0.300000X0.237500X0*%
%ADD28RoundRect,0.237500X-0.237500X0.300000X-0.237500X-0.300000X0.237500X-0.300000X0.237500X0.300000X0*%
%ADD29RoundRect,0.250000X-0.650000X0.412500X-0.650000X-0.412500X0.650000X-0.412500X0.650000X0.412500X0*%
%ADD30RoundRect,0.237500X0.237500X-0.287500X0.237500X0.287500X-0.237500X0.287500X-0.237500X-0.287500X0*%
%ADD31RoundRect,0.250000X0.650000X-0.412500X0.650000X0.412500X-0.650000X0.412500X-0.650000X-0.412500X0*%
%ADD32R,2.100000X2.100000*%
%ADD33C,2.100000*%
G04 APERTURE END LIST*
D10*
%TO.C,SW3*%
X134500000Y-125500000D03*
X141000000Y-125500000D03*
X134500000Y-130000000D03*
X141000000Y-130000000D03*
%TD*%
D11*
%TO.C,REF04*%
X139419900Y-107086300D03*
%TD*%
D10*
%TO.C,RESET*%
X163100000Y-130100000D03*
X156600000Y-130100000D03*
X163100000Y-125600000D03*
X156600000Y-125600000D03*
%TD*%
D12*
%TO.C,USB1*%
X85300000Y-113000000D03*
X85300000Y-118000000D03*
D13*
X82550000Y-111625000D03*
D14*
X86350000Y-111775000D03*
X86350000Y-119225000D03*
D13*
X82550000Y-119375000D03*
%TD*%
D15*
%TO.C,JA1*%
X106400000Y-68984100D03*
D16*
X106400000Y-71524100D03*
X106400000Y-74064100D03*
X106400000Y-76604100D03*
X106400000Y-79144100D03*
X106400000Y-81684100D03*
X106400000Y-84224100D03*
X106400000Y-86764100D03*
%TD*%
D11*
%TO.C,REF01*%
X106400000Y-55014100D03*
%TD*%
D15*
%TO.C,SWITCH1*%
X163400000Y-76570000D03*
D16*
X163400000Y-79110000D03*
X163400000Y-81650000D03*
X163400000Y-84190000D03*
%TD*%
D15*
%TO.C,J1*%
X95225000Y-54025000D03*
D16*
X97765000Y-54025000D03*
X95225000Y-56565000D03*
X97765000Y-56565000D03*
X95225000Y-59105000D03*
X97765000Y-59105000D03*
X95225000Y-61645000D03*
X97765000Y-61645000D03*
X95225000Y-64185000D03*
X97765000Y-64185000D03*
X95225000Y-66725000D03*
X97765000Y-66725000D03*
X95225000Y-69265000D03*
X97765000Y-69265000D03*
X95225000Y-71805000D03*
X97765000Y-71805000D03*
X95225000Y-74345000D03*
X97765000Y-74345000D03*
X95225000Y-76885000D03*
X97765000Y-76885000D03*
X95225000Y-79425000D03*
X97765000Y-79425000D03*
X95225000Y-81965000D03*
X97765000Y-81965000D03*
X95225000Y-84505000D03*
X97765000Y-84505000D03*
X95225000Y-87045000D03*
X97765000Y-87045000D03*
X95225000Y-89585000D03*
X97765000Y-89585000D03*
%TD*%
D17*
%TO.C,X2*%
X113000000Y-72575000D03*
X113000000Y-74475000D03*
%TD*%
D11*
%TO.C,REF03*%
X111479400Y-107085500D03*
%TD*%
D15*
%TO.C,JA4*%
X154660200Y-86765200D03*
D16*
X154660200Y-89305200D03*
X154660200Y-91845200D03*
X154660200Y-94385200D03*
X154660200Y-96925200D03*
X154660200Y-99465200D03*
X154660200Y-102005200D03*
X154660200Y-104545200D03*
%TD*%
D18*
%TO.C,Hoyo4*%
X174000000Y-46025000D03*
%TD*%
%TO.C,Hoyo3*%
X86000000Y-46025000D03*
%TD*%
D15*
%TO.C,LCD1*%
X85200000Y-55300000D03*
D16*
X85200000Y-57840000D03*
X85200000Y-60380000D03*
X85200000Y-62920000D03*
X85200000Y-65460000D03*
X85200000Y-68000000D03*
X85200000Y-70540000D03*
X85200000Y-73080000D03*
X85200000Y-75620000D03*
X85200000Y-78160000D03*
X85200000Y-80700000D03*
X85200000Y-83240000D03*
X85200000Y-85780000D03*
X85200000Y-88320000D03*
%TD*%
D15*
%TO.C,JA3*%
X154660800Y-59841400D03*
D16*
X154660800Y-62381400D03*
X154660800Y-64921400D03*
X154660800Y-67461400D03*
X154660800Y-70001400D03*
X154660800Y-72541400D03*
X154660800Y-75081400D03*
X154660800Y-77621400D03*
X154660800Y-80161400D03*
X154660800Y-82701400D03*
%TD*%
D15*
%TO.C,JA2*%
X106400000Y-91845000D03*
D16*
X106400000Y-94385000D03*
X106400000Y-96925000D03*
X106400000Y-99465000D03*
X106400000Y-102005000D03*
X106400000Y-104545000D03*
%TD*%
D15*
%TO.C,CAMERA1*%
X172125000Y-102175000D03*
D16*
X174665000Y-102175000D03*
X172125000Y-104715000D03*
X174665000Y-104715000D03*
X172125000Y-107255000D03*
X174665000Y-107255000D03*
X172125000Y-109795000D03*
X174665000Y-109795000D03*
X172125000Y-112335000D03*
X174665000Y-112335000D03*
X172125000Y-114875000D03*
X174665000Y-114875000D03*
X172125000Y-117415000D03*
X174665000Y-117415000D03*
X172125000Y-119955000D03*
X174665000Y-119955000D03*
X172125000Y-122495000D03*
X174665000Y-122495000D03*
%TD*%
D10*
%TO.C,SW4*%
X145500000Y-125500000D03*
X152000000Y-125500000D03*
X145500000Y-130000000D03*
X152000000Y-130000000D03*
%TD*%
%TO.C,SW1*%
X112500000Y-125500000D03*
X119000000Y-125500000D03*
X112500000Y-130000000D03*
X119000000Y-130000000D03*
%TD*%
D18*
%TO.C,Hoyo2*%
X86000000Y-133525000D03*
%TD*%
D19*
%TO.C,X1*%
X113000000Y-80875000D03*
X113000000Y-85775000D03*
%TD*%
D15*
%TO.C,J3*%
X105225000Y-47300000D03*
D16*
X105225000Y-44760000D03*
X107765000Y-47300000D03*
X107765000Y-44760000D03*
X110305000Y-47300000D03*
X110305000Y-44760000D03*
X112845000Y-47300000D03*
X112845000Y-44760000D03*
X115385000Y-47300000D03*
X115385000Y-44760000D03*
X117925000Y-47300000D03*
X117925000Y-44760000D03*
X120465000Y-47300000D03*
X120465000Y-44760000D03*
X123005000Y-47300000D03*
X123005000Y-44760000D03*
X125545000Y-47300000D03*
X125545000Y-44760000D03*
X128085000Y-47300000D03*
X128085000Y-44760000D03*
X130625000Y-47300000D03*
X130625000Y-44760000D03*
X133165000Y-47300000D03*
X133165000Y-44760000D03*
X135705000Y-47300000D03*
X135705000Y-44760000D03*
X138245000Y-47300000D03*
X138245000Y-44760000D03*
X140785000Y-47300000D03*
X140785000Y-44760000D03*
%TD*%
D15*
%TO.C,UART1*%
X160500000Y-46000000D03*
D16*
X163040000Y-46000000D03*
X165580000Y-46000000D03*
X168120000Y-46000000D03*
%TD*%
D18*
%TO.C,Hoyo1*%
X174000000Y-133525000D03*
%TD*%
D15*
%TO.C,STLINK1*%
X163400000Y-60370000D03*
D16*
X163400000Y-62910000D03*
X163400000Y-65450000D03*
X163400000Y-67990000D03*
%TD*%
D15*
%TO.C,BOOT1*%
X93100000Y-47300000D03*
D16*
X93100000Y-44760000D03*
X95640000Y-47300000D03*
X95640000Y-44760000D03*
X98180000Y-47300000D03*
X98180000Y-44760000D03*
%TD*%
D10*
%TO.C,SW2*%
X123500000Y-125500000D03*
X130000000Y-125500000D03*
X123500000Y-130000000D03*
X130000000Y-130000000D03*
%TD*%
D15*
%TO.C,J4*%
X172125000Y-56150000D03*
D16*
X174665000Y-56150000D03*
X172125000Y-58690000D03*
X174665000Y-58690000D03*
X172125000Y-61230000D03*
X174665000Y-61230000D03*
X172125000Y-63770000D03*
X174665000Y-63770000D03*
X172125000Y-66310000D03*
X174665000Y-66310000D03*
X172125000Y-68850000D03*
X174665000Y-68850000D03*
X172125000Y-71390000D03*
X174665000Y-71390000D03*
X172125000Y-73930000D03*
X174665000Y-73930000D03*
X172125000Y-76470000D03*
X174665000Y-76470000D03*
X172125000Y-79010000D03*
X174665000Y-79010000D03*
X172125000Y-81550000D03*
X174665000Y-81550000D03*
X172125000Y-84090000D03*
X174665000Y-84090000D03*
X172125000Y-86630000D03*
X174665000Y-86630000D03*
X172125000Y-89170000D03*
X174665000Y-89170000D03*
X172125000Y-91710000D03*
X174665000Y-91710000D03*
%TD*%
D15*
%TO.C,J2*%
X119575000Y-119825000D03*
D16*
X119575000Y-117285000D03*
X122115000Y-119825000D03*
X122115000Y-117285000D03*
X124655000Y-119825000D03*
X124655000Y-117285000D03*
X127195000Y-119825000D03*
X127195000Y-117285000D03*
X129735000Y-119825000D03*
X129735000Y-117285000D03*
X132275000Y-119825000D03*
X132275000Y-117285000D03*
X134815000Y-119825000D03*
X134815000Y-117285000D03*
X137355000Y-119825000D03*
X137355000Y-117285000D03*
X139895000Y-119825000D03*
X139895000Y-117285000D03*
X142435000Y-119825000D03*
X142435000Y-117285000D03*
X144975000Y-119825000D03*
X144975000Y-117285000D03*
X147515000Y-119825000D03*
X147515000Y-117285000D03*
X150055000Y-119825000D03*
X150055000Y-117285000D03*
X152595000Y-119825000D03*
X152595000Y-117285000D03*
X155135000Y-119825000D03*
X155135000Y-117285000D03*
%TD*%
D15*
%TO.C,LEDS1*%
X163400000Y-91450000D03*
D16*
X163400000Y-93990000D03*
X163400000Y-96530000D03*
X163400000Y-99070000D03*
X163400000Y-101610000D03*
X163400000Y-104150000D03*
X163400000Y-106690000D03*
X163400000Y-109230000D03*
%TD*%
D15*
%TO.C,NRF24*%
X146925000Y-47300000D03*
D16*
X146925000Y-44760000D03*
X149465000Y-47300000D03*
X149465000Y-44760000D03*
X152005000Y-47300000D03*
X152005000Y-44760000D03*
X154545000Y-47300000D03*
X154545000Y-44760000D03*
%TD*%
D20*
%TO.C,C18*%
X148662500Y-90375000D03*
X146937500Y-90375000D03*
%TD*%
D21*
%TO.C,R2*%
X97512500Y-102125000D03*
X95687500Y-102125000D03*
%TD*%
D22*
%TO.C,C1*%
X114962500Y-96525000D03*
X111837500Y-96525000D03*
%TD*%
D23*
%TO.C,C27*%
X139700000Y-71362500D03*
X139700000Y-69637500D03*
%TD*%
D24*
%TO.C,R10*%
X116550000Y-134037500D03*
X116550000Y-135862500D03*
%TD*%
D25*
%TO.C,U2*%
X141000000Y-86675000D03*
X140200000Y-86675000D03*
X139400000Y-86675000D03*
X138600000Y-86675000D03*
X137800000Y-86675000D03*
X137000000Y-86675000D03*
X136200000Y-86675000D03*
X135400000Y-86675000D03*
X134600000Y-86675000D03*
X133800000Y-86675000D03*
X133000000Y-86675000D03*
X132200000Y-86675000D03*
X131400000Y-86675000D03*
X130600000Y-86675000D03*
X129800000Y-86675000D03*
X129000000Y-86675000D03*
X128200000Y-86675000D03*
X127400000Y-86675000D03*
X126600000Y-86675000D03*
X125800000Y-86675000D03*
X125000000Y-86675000D03*
X124200000Y-86675000D03*
X123400000Y-86675000D03*
X122600000Y-86675000D03*
X121800000Y-86675000D03*
X121000000Y-86675000D03*
X120200000Y-86675000D03*
X120200000Y-75175000D03*
X121000000Y-75175000D03*
X121800000Y-75175000D03*
X122600000Y-75175000D03*
X123400000Y-75175000D03*
X124200000Y-75175000D03*
X125000000Y-75175000D03*
X125800000Y-75175000D03*
X126600000Y-75175000D03*
X127400000Y-75175000D03*
X128200000Y-75175000D03*
X129000000Y-75175000D03*
X129800000Y-75175000D03*
X130600000Y-75175000D03*
X131400000Y-75175000D03*
X132200000Y-75175000D03*
X133000000Y-75175000D03*
X133800000Y-75175000D03*
X134600000Y-75175000D03*
X135400000Y-75175000D03*
X136200000Y-75175000D03*
X137000000Y-75175000D03*
X137800000Y-75175000D03*
X138600000Y-75175000D03*
X139400000Y-75175000D03*
X140200000Y-75175000D03*
X141000000Y-75175000D03*
%TD*%
D23*
%TO.C,C7*%
X117200000Y-74787500D03*
X117200000Y-73062500D03*
%TD*%
D26*
%TO.C,R5*%
X122593000Y-92236400D03*
X122593000Y-90411400D03*
%TD*%
%TO.C,R4*%
X117200000Y-79837500D03*
X117200000Y-78012500D03*
%TD*%
D24*
%TO.C,R12*%
X127760000Y-134337500D03*
X127760000Y-136162500D03*
%TD*%
%TO.C,R16*%
X150270000Y-134337500D03*
X150270000Y-136162500D03*
%TD*%
D20*
%TO.C,C12*%
X148662500Y-97385000D03*
X146937500Y-97385000D03*
%TD*%
D21*
%TO.C,R1*%
X97512500Y-99625000D03*
X95687500Y-99625000D03*
%TD*%
D26*
%TO.C,R8*%
X127900000Y-92412500D03*
X127900000Y-90587500D03*
%TD*%
D27*
%TO.C,C23*%
X146937500Y-64375000D03*
X148662500Y-64375000D03*
%TD*%
D20*
%TO.C,C4*%
X130915700Y-107014100D03*
X129190700Y-107014100D03*
%TD*%
D21*
%TO.C,R3*%
X148712500Y-99975000D03*
X146887500Y-99975000D03*
%TD*%
D20*
%TO.C,C11*%
X148662500Y-94875000D03*
X146937500Y-94875000D03*
%TD*%
D28*
%TO.C,C24*%
X141700000Y-69637500D03*
X141700000Y-71362500D03*
%TD*%
D20*
%TO.C,C3*%
X97462500Y-96125000D03*
X95737500Y-96125000D03*
%TD*%
D23*
%TO.C,C26*%
X130200000Y-71362500D03*
X130200000Y-69637500D03*
%TD*%
D20*
%TO.C,C15*%
X148662500Y-71645000D03*
X146937500Y-71645000D03*
%TD*%
%TO.C,C5*%
X115155500Y-69798900D03*
X113430500Y-69798900D03*
%TD*%
D28*
%TO.C,C31*%
X125200000Y-69637500D03*
X125200000Y-71362500D03*
%TD*%
D26*
%TO.C,R7*%
X122200000Y-71412500D03*
X122200000Y-69587500D03*
%TD*%
D21*
%TO.C,R6*%
X124565700Y-106814100D03*
X122740700Y-106814100D03*
%TD*%
D23*
%TO.C,C28*%
X137200000Y-71362500D03*
X137200000Y-69637500D03*
%TD*%
D29*
%TO.C,C9*%
X132000000Y-90937500D03*
X132000000Y-94062500D03*
%TD*%
D20*
%TO.C,C16*%
X148662500Y-74155000D03*
X146937500Y-74155000D03*
%TD*%
D24*
%TO.C,R15*%
X147760000Y-134337500D03*
X147760000Y-136162500D03*
%TD*%
%TO.C,R9*%
X114040000Y-134037500D03*
X114040000Y-135862500D03*
%TD*%
%TO.C,R14*%
X139240000Y-134337500D03*
X139240000Y-136162500D03*
%TD*%
D28*
%TO.C,C29*%
X132700000Y-69637500D03*
X132700000Y-71362500D03*
%TD*%
%TO.C,C25*%
X134700000Y-69637500D03*
X134700000Y-71362500D03*
%TD*%
D24*
%TO.C,R11*%
X125250000Y-134337500D03*
X125250000Y-136162500D03*
%TD*%
D29*
%TO.C,C2*%
X136000000Y-90937500D03*
X136000000Y-94062500D03*
%TD*%
D20*
%TO.C,C13*%
X148662500Y-66625000D03*
X146937500Y-66625000D03*
%TD*%
D27*
%TO.C,C19*%
X146937500Y-87375000D03*
X148662500Y-87375000D03*
%TD*%
%TO.C,C20*%
X146937500Y-84865000D03*
X148662500Y-84865000D03*
%TD*%
D30*
%TO.C,L1*%
X125093000Y-92198900D03*
X125093000Y-90448900D03*
%TD*%
D23*
%TO.C,C10*%
X120093000Y-92186400D03*
X120093000Y-90461400D03*
%TD*%
D20*
%TO.C,C14*%
X148662500Y-69135000D03*
X146937500Y-69135000D03*
%TD*%
D23*
%TO.C,C8*%
X113200000Y-92187500D03*
X113200000Y-90462500D03*
%TD*%
D20*
%TO.C,C17*%
X148662500Y-76665000D03*
X146937500Y-76665000D03*
%TD*%
D31*
%TO.C,C21*%
X139500000Y-94062500D03*
X139500000Y-90937500D03*
%TD*%
D11*
%TO.C,REF02*%
X154660000Y-56284100D03*
%TD*%
D28*
%TO.C,C30*%
X127700000Y-69637500D03*
X127700000Y-71362500D03*
%TD*%
D24*
%TO.C,R13*%
X136730000Y-134337500D03*
X136730000Y-136162500D03*
%TD*%
D32*
%TO.C,Bateria*%
X95800000Y-132725000D03*
D33*
X95800000Y-112725000D03*
%TD*%
D28*
%TO.C,C6*%
X119700000Y-69637500D03*
X119700000Y-71362500D03*
%TD*%
D27*
%TO.C,C22*%
X146937500Y-82355000D03*
X148662500Y-82355000D03*
%TD*%
M02*
