M48
; DRILL file {KiCad 8.0.0} date 2024-05-11T21:47:55-0600
; FORMAT={-:-/ absolute / metric / decimal}
; #@! TF.CreationDate,2024-05-11T21:47:55-06:00
; #@! TF.GenerationSoftware,Kicad,Pcbnew,8.0.0
; #@! TF.FileFunction,Plated,1,2,PTH
FMAT,2
METRIC
; #@! TA.AperFunction,Plated,PTH,ViaDrill
T1C0.300
; #@! TA.AperFunction,Plated,PTH,ComponentDrill
T2C0.500
; #@! TA.AperFunction,Plated,PTH,ComponentDrill
T3C0.550
; #@! TA.AperFunction,Plated,PTH,ComponentDrill
T4C0.800
; #@! TA.AperFunction,Plated,PTH,ComponentDrill
T5C0.850
; #@! TA.AperFunction,Plated,PTH,ComponentDrill
T6C1.000
; #@! TA.AperFunction,Plated,PTH,ComponentDrill
T7C1.100
; #@! TA.AperFunction,Plated,PTH,ComponentDrill
T8C1.300
; #@! TA.AperFunction,Plated,PTH,ComponentDrill
T9C3.000
%
G90
G05
T1
X87.923Y-120.173
X88.839Y-88.763
X89.62Y-121.035
X91.235Y-121.756
X91.418Y-124.013
X91.702Y-45.186
X91.921Y-112.614
X92.048Y-43.895
X92.723Y-112.663
X92.951Y-42.243
X93.675Y-113.891
X95.41Y-128.644
X97.462Y-95.105
X98.917Y-70.372
X99.887Y-85.392
X99.941Y-79.605
X100.07Y-76.16
X100.918Y-83.761
X102.265Y-71.752
X103.312Y-75.078
X103.989Y-98.345
X104.349Y-77.942
X104.938Y-132.828
X105.048Y-71.752
X105.13Y-87.412
X107.482Y-80.802
X108.084Y-83.642
X108.114Y-85.493
X108.178Y-77.869
X108.929Y-82.904
X109.393Y-78.971
X109.682Y-86.946
X109.783Y-80.314
X109.823Y-82.554
X109.99Y-77.566
X110.617Y-92.798
X110.646Y-73.666
X110.77Y-65.491
X111.111Y-84.301
X111.122Y-76.17
X111.163Y-88.352
X111.996Y-77.566
X112.17Y-69.971
X112.258Y-67.373
X112.497Y-75.559
X112.951Y-115.92
X113.523Y-83.973
X113.599Y-76.762
X113.784Y-133.015
X114.283Y-72.904
X114.7Y-71.339
X114.817Y-93.309
X114.903Y-77.96
X115.512Y-71.798
X115.575Y-75.553
X115.764Y-83.987
X115.851Y-85.838
X115.851Y-88.54
X116.519Y-58.465
X116.565Y-84.053
X116.732Y-133.025
X116.733Y-43.596
X116.763Y-93.381
X117.537Y-87.459
X117.883Y-69.98
X118.417Y-95.354
X118.569Y-70.5
X118.615Y-54.738
X118.638Y-79.539
X118.679Y-78.175
X118.698Y-77.339
X118.853Y-90.721
X119.575Y-96.356
X120.093Y-93.822
X121.18Y-78.207
X121.194Y-70.263
X121.468Y-79.67
X121.66Y-78.868
X121.769Y-94.214
X121.8Y-76.488
X121.953Y-68.575
X122.084Y-111.912
X122.839Y-93.233
X123.181Y-83.295
X123.267Y-121.392
X123.38Y-115.262
X123.45Y-73.9
X123.598Y-77.438
X123.599Y-67.131
X123.609Y-49.19
X123.62Y-97.462
X123.633Y-85.367
X123.824Y-68.856
X123.948Y-68.029
X124.19Y-111.912
X124.404Y-84.051
X124.621Y-73.912
X124.663Y-133.365
X125.0Y-76.834
X125.073Y-102.816
X125.377Y-61.337
X125.459Y-106.154
X125.707Y-105.269
X125.716Y-84.679
X125.865Y-87.995
X125.975Y-107.402
X126.017Y-83.248
X126.124Y-112.138
X126.168Y-93.326
X126.177Y-121.994
X126.212Y-94.718
X126.253Y-71.732
X126.581Y-77.679
X126.952Y-84.933
X127.405Y-106.33
X127.41Y-73.512
X127.616Y-76.433
X127.923Y-89.579
X127.955Y-109.675
X127.963Y-80.402
X128.004Y-110.483
X128.101Y-103.887
X128.35Y-57.131
X128.457Y-105.668
X128.473Y-83.614
X128.608Y-87.945
X128.648Y-121.388
X128.756Y-79.711
X128.785Y-102.808
X128.902Y-95.618
X129.058Y-71.51
X129.26Y-134.488
X129.476Y-94.915
X129.501Y-81.236
X129.526Y-111.698
X129.576Y-121.991
X129.592Y-90.101
X129.755Y-84.295
X129.774Y-98.055
X129.8Y-77.081
X130.088Y-93.688
X130.311Y-76.45
X130.435Y-67.813
X130.6Y-72.572
X130.626Y-56.115
X130.693Y-88.343
X130.827Y-85.389
X131.005Y-82.919
X131.228Y-79.34
X131.257Y-96.603
X131.629Y-85.404
X131.738Y-64.273
X131.748Y-66.137
X132.016Y-43.245
X132.431Y-85.314
X132.609Y-89.545
X133.0Y-88.767
X133.283Y-73.736
X133.538Y-66.932
X133.663Y-101.561
X133.698Y-71.506
X133.7Y-69.022
X133.946Y-93.976
X134.232Y-92.886
X134.287Y-80.309
X134.596Y-82.919
X135.199Y-84.852
X135.492Y-68.161
X135.76Y-77.763
X135.879Y-76.64
X136.037Y-123.205
X136.151Y-65.727
X136.228Y-104.958
X136.231Y-133.344
X136.268Y-88.545
X136.539Y-102.632
X136.704Y-84.172
X136.838Y-72.769
X136.939Y-76.815
X136.987Y-79.942
X137.053Y-97.885
X137.206Y-99.141
X137.305Y-73.505
X137.341Y-84.675
X137.603Y-79.425
X137.8Y-77.418
X137.956Y-97.165
X138.062Y-99.22
X138.445Y-83.315
X138.489Y-72.782
X138.567Y-80.544
X138.659Y-58.728
X139.093Y-98.548
X139.202Y-76.481
X139.209Y-46.03
X139.591Y-77.343
X139.632Y-78.421
X139.668Y-99.123
X139.686Y-83.718
X139.701Y-95.233
X139.836Y-101.679
X140.01Y-80.498
X140.018Y-92.156
X140.172Y-133.405
X140.672Y-67.863
X141.28Y-95.158
X141.575Y-90.554
X141.628Y-92.415
X142.465Y-60.489
X142.468Y-93.466
X142.507Y-72.706
X142.543Y-88.32
X143.017Y-79.964
X143.03Y-84.576
X143.048Y-82.971
X143.057Y-102.632
X143.071Y-77.949
X143.205Y-70.468
X143.27Y-53.166
X143.644Y-82.433
X143.795Y-78.358
X143.876Y-76.079
X143.893Y-92.785
X143.901Y-87.64
X144.007Y-86.436
X144.21Y-72.766
X144.348Y-80.365
X144.696Y-92.785
X144.916Y-95.316
X145.111Y-66.22
X145.577Y-90.595
X145.773Y-93.977
X145.813Y-67.233
X145.842Y-93.029
X146.096Y-95.901
X146.145Y-73.121
X146.208Y-78.358
X146.345Y-88.819
X146.736Y-53.769
X146.938Y-83.831
X147.029Y-98.513
X147.06Y-113.288
X147.576Y-70.561
X147.76Y-133.328
X147.819Y-89.421
X147.822Y-58.563
X148.029Y-55.514
X148.231Y-67.607
X148.293Y-78.724
X148.631Y-54.311
X149.067Y-59.7
X149.074Y-111.555
X149.099Y-72.73
X149.23Y-127.997
X149.31Y-50.832
X149.334Y-77.656
X149.508Y-92.364
X149.517Y-70.561
X149.723Y-69.07
X149.803Y-90.487
X150.282Y-83.701
X150.647Y-104.754
X150.963Y-78.409
X150.963Y-87.526
X151.154Y-75.664
X151.21Y-114.399
X151.422Y-83.076
X151.495Y-99.548
X151.568Y-61.866
X151.598Y-133.605
X151.768Y-87.217
X151.909Y-60.662
X151.934Y-109.064
X152.086Y-106.792
X152.116Y-50.216
X152.137Y-88.218
X152.455Y-85.825
X152.772Y-61.816
X152.9Y-103.17
X152.95Y-78.28
X153.306Y-80.933
X153.444Y-73.301
X153.536Y-127.717
X153.551Y-66.609
X153.729Y-98.376
X154.156Y-121.152
X154.51Y-123.001
X155.661Y-131.314
X156.228Y-90.271
X156.833Y-70.707
X156.891Y-89.036
X157.192Y-128.268
X157.277Y-104.401
X158.218Y-67.99
X158.226Y-95.655
X159.944Y-55.529
X159.972Y-127.891
X160.256Y-72.781
X160.256Y-85.614
X160.296Y-96.53
X160.301Y-123.001
X160.938Y-122.392
X160.96Y-127.263
X161.87Y-86.009
X162.02Y-84.171
X162.822Y-71.71
X163.651Y-72.136
X164.237Y-64.077
X164.69Y-87.55
X165.22Y-99.555
X167.046Y-75.325
X167.242Y-105.508
X167.382Y-77.117
X167.382Y-78.336
X167.815Y-104.932
X168.429Y-103.563
X169.501Y-100.986
X171.653Y-99.433
X173.51Y-100.212
X178.597Y-109.795
X179.356Y-93.972
T2
X113.0Y-72.575
X113.0Y-74.475
T4
X113.0Y-80.875
X113.0Y-85.775
T6
X85.2Y-55.3
X85.2Y-57.84
X85.2Y-60.38
X85.2Y-62.92
X85.2Y-65.46
X85.2Y-68.0
X85.2Y-70.54
X85.2Y-73.08
X85.2Y-75.62
X85.2Y-78.16
X85.2Y-80.7
X85.2Y-83.24
X85.2Y-85.78
X85.2Y-88.32
X93.1Y-44.76
X93.1Y-47.3
X95.225Y-54.025
X95.225Y-56.565
X95.225Y-59.105
X95.225Y-61.645
X95.225Y-64.185
X95.225Y-66.725
X95.225Y-69.265
X95.225Y-71.805
X95.225Y-74.345
X95.225Y-76.885
X95.225Y-79.425
X95.225Y-81.965
X95.225Y-84.505
X95.225Y-87.045
X95.225Y-89.585
X95.64Y-44.76
X95.64Y-47.3
X97.765Y-54.025
X97.765Y-56.565
X97.765Y-59.105
X97.765Y-61.645
X97.765Y-64.185
X97.765Y-66.725
X97.765Y-69.265
X97.765Y-71.805
X97.765Y-74.345
X97.765Y-76.885
X97.765Y-79.425
X97.765Y-81.965
X97.765Y-84.505
X97.765Y-87.045
X97.765Y-89.585
X98.18Y-44.76
X98.18Y-47.3
X105.225Y-44.76
X105.225Y-47.3
X106.4Y-68.984
X106.4Y-71.524
X106.4Y-74.064
X106.4Y-76.604
X106.4Y-79.144
X106.4Y-81.684
X106.4Y-84.224
X106.4Y-86.764
X106.4Y-91.845
X106.4Y-94.385
X106.4Y-96.925
X106.4Y-99.465
X106.4Y-102.005
X106.4Y-104.545
X107.765Y-44.76
X107.765Y-47.3
X110.305Y-44.76
X110.305Y-47.3
X112.845Y-44.76
X112.845Y-47.3
X115.385Y-44.76
X115.385Y-47.3
X117.925Y-44.76
X117.925Y-47.3
X119.575Y-117.285
X119.575Y-119.825
X120.465Y-44.76
X120.465Y-47.3
X122.115Y-117.285
X122.115Y-119.825
X123.005Y-44.76
X123.005Y-47.3
X124.655Y-117.285
X124.655Y-119.825
X125.545Y-44.76
X125.545Y-47.3
X127.195Y-117.285
X127.195Y-119.825
X128.085Y-44.76
X128.085Y-47.3
X129.735Y-117.285
X129.735Y-119.825
X130.625Y-44.76
X130.625Y-47.3
X132.275Y-117.285
X132.275Y-119.825
X133.165Y-44.76
X133.165Y-47.3
X134.815Y-117.285
X134.815Y-119.825
X135.705Y-44.76
X135.705Y-47.3
X137.355Y-117.285
X137.355Y-119.825
X138.245Y-44.76
X138.245Y-47.3
X139.895Y-117.285
X139.895Y-119.825
X140.785Y-44.76
X140.785Y-47.3
X142.435Y-117.285
X142.435Y-119.825
X144.975Y-117.285
X144.975Y-119.825
X146.925Y-44.76
X146.925Y-47.3
X147.515Y-117.285
X147.515Y-119.825
X149.465Y-44.76
X149.465Y-47.3
X150.055Y-117.285
X150.055Y-119.825
X152.005Y-44.76
X152.005Y-47.3
X152.595Y-117.285
X152.595Y-119.825
X154.545Y-44.76
X154.545Y-47.3
X154.66Y-86.765
X154.66Y-89.305
X154.66Y-91.845
X154.66Y-94.385
X154.66Y-96.925
X154.66Y-99.465
X154.66Y-102.005
X154.66Y-104.545
X154.661Y-59.841
X154.661Y-62.381
X154.661Y-64.921
X154.661Y-67.461
X154.661Y-70.001
X154.661Y-72.541
X154.661Y-75.081
X154.661Y-77.621
X154.661Y-80.161
X154.661Y-82.701
X155.135Y-117.285
X155.135Y-119.825
X160.5Y-46.0
X163.04Y-46.0
X163.4Y-60.37
X163.4Y-62.91
X163.4Y-65.45
X163.4Y-67.99
X163.4Y-76.57
X163.4Y-79.11
X163.4Y-81.65
X163.4Y-84.19
X163.4Y-91.45
X163.4Y-93.99
X163.4Y-96.53
X163.4Y-99.07
X163.4Y-101.61
X163.4Y-104.15
X163.4Y-106.69
X163.4Y-109.23
X165.58Y-46.0
X168.12Y-46.0
X172.125Y-56.15
X172.125Y-58.69
X172.125Y-61.23
X172.125Y-63.77
X172.125Y-66.31
X172.125Y-68.85
X172.125Y-71.39
X172.125Y-73.93
X172.125Y-76.47
X172.125Y-79.01
X172.125Y-81.55
X172.125Y-84.09
X172.125Y-86.63
X172.125Y-89.17
X172.125Y-91.71
X172.125Y-102.175
X172.125Y-104.715
X172.125Y-107.255
X172.125Y-109.795
X172.125Y-112.335
X172.125Y-114.875
X172.125Y-117.415
X172.125Y-119.955
X172.125Y-122.495
X174.665Y-56.15
X174.665Y-58.69
X174.665Y-61.23
X174.665Y-63.77
X174.665Y-66.31
X174.665Y-68.85
X174.665Y-71.39
X174.665Y-73.93
X174.665Y-76.47
X174.665Y-79.01
X174.665Y-81.55
X174.665Y-84.09
X174.665Y-86.63
X174.665Y-89.17
X174.665Y-91.71
X174.665Y-102.175
X174.665Y-104.715
X174.665Y-107.255
X174.665Y-109.795
X174.665Y-112.335
X174.665Y-114.875
X174.665Y-117.415
X174.665Y-119.955
X174.665Y-122.495
T7
X112.5Y-125.5
X112.5Y-130.0
X119.0Y-125.5
X119.0Y-130.0
X123.5Y-125.5
X123.5Y-130.0
X130.0Y-125.5
X130.0Y-130.0
X134.5Y-125.5
X134.5Y-130.0
X141.0Y-125.5
X141.0Y-130.0
X145.5Y-125.5
X145.5Y-130.0
X152.0Y-125.5
X152.0Y-130.0
X156.6Y-125.6
X156.6Y-130.1
X163.1Y-125.6
X163.1Y-130.1
T8
X95.8Y-112.725
X95.8Y-132.725
T9
X86.0Y-46.025
X86.0Y-133.525
X174.0Y-46.025
X174.0Y-133.525
T3
X82.875Y-111.625G85X82.225Y-111.625
G05
X82.875Y-119.375G85X82.225Y-119.375
G05
T5
X86.625Y-111.775G85X86.075Y-111.775
G05
X86.625Y-119.225G85X86.075Y-119.225
G05
M30
