%TF.GenerationSoftware,KiCad,Pcbnew,8.0.0*%
%TF.CreationDate,2024-05-11T21:48:02-06:00*%
%TF.ProjectId,PLACAROUTEADA,504c4143-4152-44f5-9554-454144412e6b,rev?*%
%TF.SameCoordinates,Original*%
%TF.FileFunction,Paste,Bot*%
%TF.FilePolarity,Positive*%
%FSLAX46Y46*%
G04 Gerber Fmt 4.6, Leading zero omitted, Abs format (unit mm)*
G04 Created by KiCad (PCBNEW 8.0.0) date 2024-05-11 21:48:02*
%MOMM*%
%LPD*%
G01*
G04 APERTURE LIST*
G04 Aperture macros list*
%AMRoundRect*
0 Rectangle with rounded corners*
0 $1 Rounding radius*
0 $2 $3 $4 $5 $6 $7 $8 $9 X,Y pos of 4 corners*
0 Add a 4 corners polygon primitive as box body*
4,1,4,$2,$3,$4,$5,$6,$7,$8,$9,$2,$3,0*
0 Add four circle primitives for the rounded corners*
1,1,$1+$1,$2,$3*
1,1,$1+$1,$4,$5*
1,1,$1+$1,$6,$7*
1,1,$1+$1,$8,$9*
0 Add four rect primitives between the rounded corners*
20,1,$1+$1,$2,$3,$4,$5,0*
20,1,$1+$1,$4,$5,$6,$7,0*
20,1,$1+$1,$6,$7,$8,$9,0*
20,1,$1+$1,$8,$9,$2,$3,0*%
G04 Aperture macros list end*
%ADD10RoundRect,0.237500X0.300000X0.237500X-0.300000X0.237500X-0.300000X-0.237500X0.300000X-0.237500X0*%
%ADD11RoundRect,0.237500X0.250000X0.237500X-0.250000X0.237500X-0.250000X-0.237500X0.250000X-0.237500X0*%
%ADD12RoundRect,0.250000X0.412500X0.650000X-0.412500X0.650000X-0.412500X-0.650000X0.412500X-0.650000X0*%
%ADD13RoundRect,0.237500X0.237500X-0.300000X0.237500X0.300000X-0.237500X0.300000X-0.237500X-0.300000X0*%
%ADD14RoundRect,0.237500X-0.237500X0.250000X-0.237500X-0.250000X0.237500X-0.250000X0.237500X0.250000X0*%
%ADD15R,0.458000X1.510000*%
%ADD16RoundRect,0.237500X0.237500X-0.250000X0.237500X0.250000X-0.237500X0.250000X-0.237500X-0.250000X0*%
%ADD17RoundRect,0.237500X-0.300000X-0.237500X0.300000X-0.237500X0.300000X0.237500X-0.300000X0.237500X0*%
%ADD18RoundRect,0.237500X-0.237500X0.300000X-0.237500X-0.300000X0.237500X-0.300000X0.237500X0.300000X0*%
%ADD19RoundRect,0.250000X-0.650000X0.412500X-0.650000X-0.412500X0.650000X-0.412500X0.650000X0.412500X0*%
%ADD20RoundRect,0.237500X0.237500X-0.287500X0.237500X0.287500X-0.237500X0.287500X-0.237500X-0.287500X0*%
%ADD21RoundRect,0.250000X0.650000X-0.412500X0.650000X0.412500X-0.650000X0.412500X-0.650000X-0.412500X0*%
G04 APERTURE END LIST*
D10*
%TO.C,C18*%
X148662500Y-90375000D03*
X146937500Y-90375000D03*
%TD*%
D11*
%TO.C,R2*%
X97512500Y-102125000D03*
X95687500Y-102125000D03*
%TD*%
D12*
%TO.C,C1*%
X114962500Y-96525000D03*
X111837500Y-96525000D03*
%TD*%
D13*
%TO.C,C27*%
X139700000Y-71362500D03*
X139700000Y-69637500D03*
%TD*%
D14*
%TO.C,R10*%
X116550000Y-134037500D03*
X116550000Y-135862500D03*
%TD*%
D15*
%TO.C,U2*%
X141000000Y-86675000D03*
X140200000Y-86675000D03*
X139400000Y-86675000D03*
X138600000Y-86675000D03*
X137800000Y-86675000D03*
X137000000Y-86675000D03*
X136200000Y-86675000D03*
X135400000Y-86675000D03*
X134600000Y-86675000D03*
X133800000Y-86675000D03*
X133000000Y-86675000D03*
X132200000Y-86675000D03*
X131400000Y-86675000D03*
X130600000Y-86675000D03*
X129800000Y-86675000D03*
X129000000Y-86675000D03*
X128200000Y-86675000D03*
X127400000Y-86675000D03*
X126600000Y-86675000D03*
X125800000Y-86675000D03*
X125000000Y-86675000D03*
X124200000Y-86675000D03*
X123400000Y-86675000D03*
X122600000Y-86675000D03*
X121800000Y-86675000D03*
X121000000Y-86675000D03*
X120200000Y-86675000D03*
X120200000Y-75175000D03*
X121000000Y-75175000D03*
X121800000Y-75175000D03*
X122600000Y-75175000D03*
X123400000Y-75175000D03*
X124200000Y-75175000D03*
X125000000Y-75175000D03*
X125800000Y-75175000D03*
X126600000Y-75175000D03*
X127400000Y-75175000D03*
X128200000Y-75175000D03*
X129000000Y-75175000D03*
X129800000Y-75175000D03*
X130600000Y-75175000D03*
X131400000Y-75175000D03*
X132200000Y-75175000D03*
X133000000Y-75175000D03*
X133800000Y-75175000D03*
X134600000Y-75175000D03*
X135400000Y-75175000D03*
X136200000Y-75175000D03*
X137000000Y-75175000D03*
X137800000Y-75175000D03*
X138600000Y-75175000D03*
X139400000Y-75175000D03*
X140200000Y-75175000D03*
X141000000Y-75175000D03*
%TD*%
D13*
%TO.C,C7*%
X117200000Y-74787500D03*
X117200000Y-73062500D03*
%TD*%
D16*
%TO.C,R5*%
X122593000Y-92236400D03*
X122593000Y-90411400D03*
%TD*%
%TO.C,R4*%
X117200000Y-79837500D03*
X117200000Y-78012500D03*
%TD*%
D14*
%TO.C,R12*%
X127760000Y-134337500D03*
X127760000Y-136162500D03*
%TD*%
%TO.C,R16*%
X150270000Y-134337500D03*
X150270000Y-136162500D03*
%TD*%
D10*
%TO.C,C12*%
X148662500Y-97385000D03*
X146937500Y-97385000D03*
%TD*%
D11*
%TO.C,R1*%
X97512500Y-99625000D03*
X95687500Y-99625000D03*
%TD*%
D16*
%TO.C,R8*%
X127900000Y-92412500D03*
X127900000Y-90587500D03*
%TD*%
D17*
%TO.C,C23*%
X146937500Y-64375000D03*
X148662500Y-64375000D03*
%TD*%
D10*
%TO.C,C4*%
X130915700Y-107014100D03*
X129190700Y-107014100D03*
%TD*%
D11*
%TO.C,R3*%
X148712500Y-99975000D03*
X146887500Y-99975000D03*
%TD*%
D10*
%TO.C,C11*%
X148662500Y-94875000D03*
X146937500Y-94875000D03*
%TD*%
D18*
%TO.C,C24*%
X141700000Y-69637500D03*
X141700000Y-71362500D03*
%TD*%
D10*
%TO.C,C3*%
X97462500Y-96125000D03*
X95737500Y-96125000D03*
%TD*%
D13*
%TO.C,C26*%
X130200000Y-71362500D03*
X130200000Y-69637500D03*
%TD*%
D10*
%TO.C,C15*%
X148662500Y-71645000D03*
X146937500Y-71645000D03*
%TD*%
%TO.C,C5*%
X115155500Y-69798900D03*
X113430500Y-69798900D03*
%TD*%
D18*
%TO.C,C31*%
X125200000Y-69637500D03*
X125200000Y-71362500D03*
%TD*%
D16*
%TO.C,R7*%
X122200000Y-71412500D03*
X122200000Y-69587500D03*
%TD*%
D11*
%TO.C,R6*%
X124565700Y-106814100D03*
X122740700Y-106814100D03*
%TD*%
D13*
%TO.C,C28*%
X137200000Y-71362500D03*
X137200000Y-69637500D03*
%TD*%
D19*
%TO.C,C9*%
X132000000Y-90937500D03*
X132000000Y-94062500D03*
%TD*%
D10*
%TO.C,C16*%
X148662500Y-74155000D03*
X146937500Y-74155000D03*
%TD*%
D14*
%TO.C,R15*%
X147760000Y-134337500D03*
X147760000Y-136162500D03*
%TD*%
%TO.C,R9*%
X114040000Y-134037500D03*
X114040000Y-135862500D03*
%TD*%
%TO.C,R14*%
X139240000Y-134337500D03*
X139240000Y-136162500D03*
%TD*%
D18*
%TO.C,C29*%
X132700000Y-69637500D03*
X132700000Y-71362500D03*
%TD*%
%TO.C,C25*%
X134700000Y-69637500D03*
X134700000Y-71362500D03*
%TD*%
D14*
%TO.C,R11*%
X125250000Y-134337500D03*
X125250000Y-136162500D03*
%TD*%
D19*
%TO.C,C2*%
X136000000Y-90937500D03*
X136000000Y-94062500D03*
%TD*%
D10*
%TO.C,C13*%
X148662500Y-66625000D03*
X146937500Y-66625000D03*
%TD*%
D17*
%TO.C,C19*%
X146937500Y-87375000D03*
X148662500Y-87375000D03*
%TD*%
%TO.C,C20*%
X146937500Y-84865000D03*
X148662500Y-84865000D03*
%TD*%
D20*
%TO.C,L1*%
X125093000Y-92198900D03*
X125093000Y-90448900D03*
%TD*%
D13*
%TO.C,C10*%
X120093000Y-92186400D03*
X120093000Y-90461400D03*
%TD*%
D10*
%TO.C,C14*%
X148662500Y-69135000D03*
X146937500Y-69135000D03*
%TD*%
D13*
%TO.C,C8*%
X113200000Y-92187500D03*
X113200000Y-90462500D03*
%TD*%
D10*
%TO.C,C17*%
X148662500Y-76665000D03*
X146937500Y-76665000D03*
%TD*%
D21*
%TO.C,C21*%
X139500000Y-94062500D03*
X139500000Y-90937500D03*
%TD*%
D18*
%TO.C,C30*%
X127700000Y-69637500D03*
X127700000Y-71362500D03*
%TD*%
D14*
%TO.C,R13*%
X136730000Y-134337500D03*
X136730000Y-136162500D03*
%TD*%
D18*
%TO.C,C6*%
X119700000Y-69637500D03*
X119700000Y-71362500D03*
%TD*%
D17*
%TO.C,C22*%
X146937500Y-82355000D03*
X148662500Y-82355000D03*
%TD*%
M02*
