%TF.GenerationSoftware,KiCad,Pcbnew,8.0.0*%
%TF.CreationDate,2024-05-11T21:48:02-06:00*%
%TF.ProjectId,PLACAROUTEADA,504c4143-4152-44f5-9554-454144412e6b,rev?*%
%TF.SameCoordinates,Original*%
%TF.FileFunction,Paste,Top*%
%TF.FilePolarity,Positive*%
%FSLAX46Y46*%
G04 Gerber Fmt 4.6, Leading zero omitted, Abs format (unit mm)*
G04 Created by KiCad (PCBNEW 8.0.0) date 2024-05-11 21:48:02*
%MOMM*%
%LPD*%
G01*
G04 APERTURE LIST*
G04 Aperture macros list*
%AMRoundRect*
0 Rectangle with rounded corners*
0 $1 Rounding radius*
0 $2 $3 $4 $5 $6 $7 $8 $9 X,Y pos of 4 corners*
0 Add a 4 corners polygon primitive as box body*
4,1,4,$2,$3,$4,$5,$6,$7,$8,$9,$2,$3,0*
0 Add four circle primitives for the rounded corners*
1,1,$1+$1,$2,$3*
1,1,$1+$1,$4,$5*
1,1,$1+$1,$6,$7*
1,1,$1+$1,$8,$9*
0 Add four rect primitives between the rounded corners*
20,1,$1+$1,$2,$3,$4,$5,0*
20,1,$1+$1,$4,$5,$6,$7,0*
20,1,$1+$1,$6,$7,$8,$9,0*
20,1,$1+$1,$8,$9,$2,$3,0*%
G04 Aperture macros list end*
%ADD10RoundRect,0.218750X0.256250X-0.218750X0.256250X0.218750X-0.256250X0.218750X-0.256250X-0.218750X0*%
%ADD11R,1.300000X0.450000*%
%ADD12RoundRect,0.375000X0.375000X-0.625000X0.375000X0.625000X-0.375000X0.625000X-0.375000X-0.625000X0*%
%ADD13RoundRect,0.500000X1.400000X-0.500000X1.400000X0.500000X-1.400000X0.500000X-1.400000X-0.500000X0*%
%ADD14RoundRect,0.218750X-0.218750X-0.256250X0.218750X-0.256250X0.218750X0.256250X-0.218750X0.256250X0*%
%ADD15RoundRect,0.075000X-0.662500X-0.075000X0.662500X-0.075000X0.662500X0.075000X-0.662500X0.075000X0*%
%ADD16RoundRect,0.075000X-0.075000X-0.662500X0.075000X-0.662500X0.075000X0.662500X-0.075000X0.662500X0*%
G04 APERTURE END LIST*
D10*
%TO.C,LED6*%
X139840000Y-135937500D03*
X139840000Y-134362500D03*
%TD*%
D11*
%TO.C,USB1*%
X86400000Y-114200000D03*
X86400000Y-114850000D03*
X86400000Y-115500000D03*
X86400000Y-116150000D03*
X86400000Y-116800000D03*
%TD*%
D12*
%TO.C,U3*%
X93200000Y-126650000D03*
X95500000Y-126650000D03*
D13*
X95500000Y-120350000D03*
D12*
X97800000Y-126650000D03*
%TD*%
D14*
%TO.C,LEDR*%
X158662500Y-135050000D03*
X160237500Y-135050000D03*
%TD*%
D10*
%TO.C,LED1*%
X114450000Y-135637500D03*
X114450000Y-134062500D03*
%TD*%
%TO.C,LED4*%
X128250000Y-135937500D03*
X128250000Y-134362500D03*
%TD*%
%TO.C,LED2*%
X117040000Y-135637500D03*
X117040000Y-134062500D03*
%TD*%
D15*
%TO.C,U1*%
X119937500Y-72175000D03*
X119937500Y-72675000D03*
X119937500Y-73175000D03*
X119937500Y-73675000D03*
X119937500Y-74175000D03*
X119937500Y-74675000D03*
X119937500Y-75175000D03*
X119937500Y-75675000D03*
X119937500Y-76175000D03*
X119937500Y-76675000D03*
X119937500Y-77175000D03*
X119937500Y-77675000D03*
X119937500Y-78175000D03*
X119937500Y-78675000D03*
X119937500Y-79175000D03*
X119937500Y-79675000D03*
X119937500Y-80175000D03*
X119937500Y-80675000D03*
X119937500Y-81175000D03*
X119937500Y-81675000D03*
X119937500Y-82175000D03*
X119937500Y-82675000D03*
X119937500Y-83175000D03*
X119937500Y-83675000D03*
X119937500Y-84175000D03*
X119937500Y-84675000D03*
X119937500Y-85175000D03*
X119937500Y-85675000D03*
X119937500Y-86175000D03*
X119937500Y-86675000D03*
X119937500Y-87175000D03*
X119937500Y-87675000D03*
X119937500Y-88175000D03*
X119937500Y-88675000D03*
X119937500Y-89175000D03*
X119937500Y-89675000D03*
D16*
X121850000Y-91587500D03*
X122350000Y-91587500D03*
X122850000Y-91587500D03*
X123350000Y-91587500D03*
X123850000Y-91587500D03*
X124350000Y-91587500D03*
X124850000Y-91587500D03*
X125350000Y-91587500D03*
X125850000Y-91587500D03*
X126350000Y-91587500D03*
X126850000Y-91587500D03*
X127350000Y-91587500D03*
X127850000Y-91587500D03*
X128350000Y-91587500D03*
X128850000Y-91587500D03*
X129350000Y-91587500D03*
X129850000Y-91587500D03*
X130350000Y-91587500D03*
X130850000Y-91587500D03*
X131350000Y-91587500D03*
X131850000Y-91587500D03*
X132350000Y-91587500D03*
X132850000Y-91587500D03*
X133350000Y-91587500D03*
X133850000Y-91587500D03*
X134350000Y-91587500D03*
X134850000Y-91587500D03*
X135350000Y-91587500D03*
X135850000Y-91587500D03*
X136350000Y-91587500D03*
X136850000Y-91587500D03*
X137350000Y-91587500D03*
X137850000Y-91587500D03*
X138350000Y-91587500D03*
X138850000Y-91587500D03*
X139350000Y-91587500D03*
D15*
X141262500Y-89675000D03*
X141262500Y-89175000D03*
X141262500Y-88675000D03*
X141262500Y-88175000D03*
X141262500Y-87675000D03*
X141262500Y-87175000D03*
X141262500Y-86675000D03*
X141262500Y-86175000D03*
X141262500Y-85675000D03*
X141262500Y-85175000D03*
X141262500Y-84675000D03*
X141262500Y-84175000D03*
X141262500Y-83675000D03*
X141262500Y-83175000D03*
X141262500Y-82675000D03*
X141262500Y-82175000D03*
X141262500Y-81675000D03*
X141262500Y-81175000D03*
X141262500Y-80675000D03*
X141262500Y-80175000D03*
X141262500Y-79675000D03*
X141262500Y-79175000D03*
X141262500Y-78675000D03*
X141262500Y-78175000D03*
X141262500Y-77675000D03*
X141262500Y-77175000D03*
X141262500Y-76675000D03*
X141262500Y-76175000D03*
X141262500Y-75675000D03*
X141262500Y-75175000D03*
X141262500Y-74675000D03*
X141262500Y-74175000D03*
X141262500Y-73675000D03*
X141262500Y-73175000D03*
X141262500Y-72675000D03*
X141262500Y-72175000D03*
D16*
X139350000Y-70262500D03*
X138850000Y-70262500D03*
X138350000Y-70262500D03*
X137850000Y-70262500D03*
X137350000Y-70262500D03*
X136850000Y-70262500D03*
X136350000Y-70262500D03*
X135850000Y-70262500D03*
X135350000Y-70262500D03*
X134850000Y-70262500D03*
X134350000Y-70262500D03*
X133850000Y-70262500D03*
X133350000Y-70262500D03*
X132850000Y-70262500D03*
X132350000Y-70262500D03*
X131850000Y-70262500D03*
X131350000Y-70262500D03*
X130850000Y-70262500D03*
X130350000Y-70262500D03*
X129850000Y-70262500D03*
X129350000Y-70262500D03*
X128850000Y-70262500D03*
X128350000Y-70262500D03*
X127850000Y-70262500D03*
X127350000Y-70262500D03*
X126850000Y-70262500D03*
X126350000Y-70262500D03*
X125850000Y-70262500D03*
X125350000Y-70262500D03*
X124850000Y-70262500D03*
X124350000Y-70262500D03*
X123850000Y-70262500D03*
X123350000Y-70262500D03*
X122850000Y-70262500D03*
X122350000Y-70262500D03*
X121850000Y-70262500D03*
%TD*%
D10*
%TO.C,LED8*%
X150840000Y-135937500D03*
X150840000Y-134362500D03*
%TD*%
%TO.C,LED7*%
X148250000Y-135937500D03*
X148250000Y-134362500D03*
%TD*%
%TO.C,LED3*%
X125660000Y-135937500D03*
X125660000Y-134362500D03*
%TD*%
%TO.C,LED5*%
X137250000Y-135937500D03*
X137250000Y-134362500D03*
%TD*%
M02*
